<svg xmlns="http://www.w3.org/2000/svg" viewBox="0 0 411.78 279.33"><title>consistency8</title><circle cx="35.83" cy="35.83" r="35.83" style="fill:#ec607f"/><path d="M239,173.93l5.7-4.1c1.84,3.16,4.28,4.47,7.39,4.47s5.6-1.74,5.6-4.71c0-2.54-1.6-4.29-5.13-4.29h-4.52v-6h4.43c3.67,0,5-2.21,5-4.61,0-2-1.84-4-5.32-4-3.77,0-5.46,1.32-6.92,4.24l-5.7-2.83c2.5-4.8,6.78-7.11,12.57-7.11,6.78,0,11.73,3.86,11.73,9.42a9,9,0,0,1-4,7.77,8.16,8.16,0,0,1,4.38,7.63c0,5.89-4.52,10.5-12.2,10.5C246.09,180.29,242.32,178.35,239,173.93Z" transform="translate(-216.5 -125.67)" style="fill:#fff"/><circle cx="116.28" cy="243.5" r="35.83" style="fill:#ec607f"/><path d="M333.26,380.51H319.32v-6l13.14-21.43h7.16v21.43h3.63v6h-3.63v7h-6.36v-7Zm0-6V362.9l-7.16,11.63h7.16Z" transform="translate(-216.5 -125.67)" style="fill:#fff"/><circle cx="263.5" cy="49.7" r="35.83" style="fill:none;stroke:#ec607f;stroke-miterlimit:10;stroke-width:6px"/><path d="M476.09,184.31c0-11.44,7.72-10.08,7.72-15.68a4,4,0,0,0-4.38-4.1,4.74,4.74,0,0,0-4.61,4l-6.07-2c1.13-4.57,4.76-7.68,10.78-7.68,6.4,0,10.93,4,10.93,9.89,0,8.95-8.57,7.06-8.57,15.59v0.52h-5.79v-0.52Zm-0.33,2.92h6.45v6.45h-6.45v-6.45Z" transform="translate(-216.5 -125.67)" style="fill:#ec607f"/><circle cx="372.94" cy="239.06" r="35.83" style="fill:none;stroke:#b3b3b3;stroke-miterlimit:10;stroke-width:6px;stroke-dasharray:12.50491714477539,12.50491714477539"/><path d="M585.53,373.67c0-11.44,7.72-10.08,7.72-15.68a4,4,0,0,0-4.38-4.1,4.74,4.74,0,0,0-4.61,4l-6.07-2c1.13-4.57,4.76-7.68,10.78-7.68,6.4,0,10.92,4,10.92,9.89,0,8.95-8.57,7.06-8.57,15.59v0.52h-5.79v-0.52Zm-0.33,2.92h6.45V383H585.2v-6.45Z" transform="translate(-216.5 -125.67)" style="fill:#ec607f"/><line x1="53.17" y1="90.67" x2="90.88" y2="188.99" style="fill:none;stroke:#ec607f;stroke-miterlimit:10;stroke-width:2px"/><polygon points="93.61 196.11 85.66 187.65 90.68 188.46 93.86 184.51 93.61 196.11" style="fill:#ec607f"/><line x1="93.06" y1="40" x2="199.88" y2="42.59" style="fill:none;stroke:#ec607f;stroke-miterlimit:10;stroke-width:2px"/><polygon points="207.5 42.78 196.65 46.91 199.31 42.58 196.87 38.13 207.5 42.78" style="fill:#ec607f"/><line x1="172.5" y1="248.89" x2="310.99" y2="247.31" style="fill:none;stroke:#ec607f;stroke-miterlimit:10;stroke-width:2px"/><polygon points="318.61 247.22 307.92 251.74 310.42 247.32 307.82 242.96 318.61 247.22" style="fill:#ec607f"/><line x1="299.33" y1="85.54" x2="348.03" y2="184.82" style="fill:none;stroke:#ec607f;stroke-miterlimit:10;stroke-width:2px"/><polygon points="351.39 191.67 342.71 183.95 347.78 184.31 350.6 180.09 351.39 191.67" style="fill:#ec607f"/><path d="M245.69,333.55H256V335H245.69v-1.46Z" transform="translate(-216.5 -125.67)" style="fill:#48f3a5"/><path d="M263.67,324.64H267v-3.3h1.44v3.3h3.32v1.44h-3.32v3.34H267v-3.34h-3.32v-1.44Z" transform="translate(-216.5 -125.67)" style="fill:#48f3a5"/><path d="M279.24,331.7h4.54V320.76a3.31,3.31,0,0,1-2.6,1h-0.26V320H281a2.58,2.58,0,0,0,2.82-2.62h1.64v14.3h4.76v1.64h-11V331.7Z" transform="translate(-216.5 -125.67)" style="fill:#48f3a5"/><path d="M391,150.62h10.26v1.46H391v-1.46Z" transform="translate(-216.5 -125.67)" style="fill:#48f3a5"/><path d="M409.37,145.12l2.66-2.66-2.66-2.69,1-1,2.66,2.69,2.66-2.66,1,1L414,142.45l2.66,2.64-1,1L413,143.46l-2.66,2.66Z" transform="translate(-216.5 -125.67)" style="fill:#48f3a5"/><path d="M425,148.72c0-2.51,2.23-4.15,4.35-5.66,1.94-1.4,4-2.66,4-4.41s-1.22-2.88-3.25-2.88a4.06,4.06,0,0,0-3.62,2.34l-1.48-.79a5.71,5.71,0,0,1,5.09-3.08c3,0,5,2,5,4.43s-2.31,4-4.41,5.5-3.84,2.69-3.84,4.54v0h8.56v1.64H425v-1.68Z" transform="translate(-216.5 -125.67)" style="fill:#48f3a5"/><path d="M449.25,326H451V342h-1.7V326Z" transform="translate(-216.5 -125.67)" style="fill:#ec607f"/><path d="M453.49,336.5a5.67,5.67,0,1,1,5.66,5.68A5.61,5.61,0,0,1,453.49,336.5Zm9.63,0a4,4,0,1,0-4,4.15A4,4,0,0,0,463.12,336.5Z" transform="translate(-216.5 -125.67)" style="fill:#ec607f"/><path d="M467,336.5a5.54,5.54,0,0,1,5.59-5.68,5.21,5.21,0,0,1,4,2V331h1.68v10.72c0,3.32-2.1,5.52-5.39,5.52-2.66,0-4.35-1.18-5.13-3l1.66-.55a3.42,3.42,0,0,0,3.47,2.07c2.38,0,3.73-1.66,3.73-4v-1.66a5.14,5.14,0,0,1-4,2A5.57,5.57,0,0,1,467,336.5Zm9.76,0a4,4,0,1,0-4.08,4.15A4.08,4.08,0,0,0,476.79,336.5Z" transform="translate(-216.5 -125.67)" style="fill:#ec607f"/><path d="M480.88,336.5c0-5.22,2.75-8.47,6-10.87l1.18,1.33c-3.12,2.18-5.37,5.07-5.37,9.52s2.23,7.38,5.39,9.54l-1.16,1.33C483.61,345,480.88,341.7,480.88,336.5Z" transform="translate(-216.5 -125.67)" style="fill:#b3b3b3"/><path d="M490.36,342.18h10.26v1.46H490.36v-1.46Z" transform="translate(-216.5 -125.67)" style="fill:#48f3a5"/><path d="M508.33,333.27h3.32V330h1.44v3.3h3.32v1.44h-3.32V338h-1.44v-3.34h-3.32v-1.44Z" transform="translate(-216.5 -125.67)" style="fill:#48f3a5"/><path d="M524.12,342.18h10.26v1.46H524.12v-1.46Z" transform="translate(-216.5 -125.67)" style="fill:#48f3a5"/><path d="M536.66,327l1.18-1.33c3.25,2.4,6,5.66,6,10.87s-2.73,8.54-6,10.85L536.64,346c3.17-2.16,5.39-5.07,5.39-9.54S539.78,329.16,536.66,327Z" transform="translate(-216.5 -125.67)" style="fill:#b3b3b3"/></svg>