<svg xmlns="http://www.w3.org/2000/svg" viewBox="0 0 429.84 378.83"><title>consistency9</title><circle cx="53.89" cy="35.83" r="35.83" style="fill:#ec607f"/><path d="M239,173.93l5.7-4.1c1.84,3.16,4.28,4.47,7.39,4.47s5.6-1.74,5.6-4.71c0-2.54-1.6-4.29-5.13-4.29h-4.52v-6h4.43c3.67,0,5-2.21,5-4.61,0-2-1.84-4-5.32-4-3.77,0-5.46,1.32-6.92,4.24l-5.7-2.83c2.5-4.8,6.78-7.11,12.57-7.11,6.78,0,11.73,3.86,11.73,9.42a9,9,0,0,1-4,7.77,8.16,8.16,0,0,1,4.38,7.63c0,5.89-4.52,10.5-12.2,10.5C246.09,180.29,242.32,178.35,239,173.93Z" transform="translate(-198.44 -125.67)" style="fill:#fff"/><circle cx="134.34" cy="243.5" r="35.83" style="fill:#ec607f"/><path d="M334.26,380.51H320.32v-6l13.14-21.42h7.16v21.42h3.63v6h-3.63v7h-6.36v-7Zm0-6V362.9l-7.16,11.63h7.16Z" transform="translate(-198.44 -125.67)" style="fill:#fff"/><circle cx="281.56" cy="49.7" r="35.83" style="fill:#ec607f"/><path d="M467.07,182.24a15.7,15.7,0,0,1,2.64-8.66l8.81-14.27h7.72L479,170.56a6.29,6.29,0,0,1,1.88-.28c6.12,0,11.07,4.9,11.07,11.91s-5.32,12-12.38,12C472.3,194.16,467.07,188.88,467.07,182.24Zm18.41-.19a6.19,6.19,0,0,0-6.07-6.12,6.15,6.15,0,0,0,0,12.29A6.17,6.17,0,0,0,485.48,182.05Z" transform="translate(-198.44 -125.67)" style="fill:#fff"/><circle cx="391" cy="239.06" r="35.83" style="fill:none;stroke:#b3b3b3;stroke-miterlimit:10;stroke-width:6px;stroke-dasharray:12.50491714477539,12.50491714477539"/><path d="M583.53,373.67c0-11.44,7.72-10.08,7.72-15.68a4,4,0,0,0-4.38-4.1,4.74,4.74,0,0,0-4.61,4l-6.07-2c1.13-4.57,4.76-7.68,10.78-7.68,6.4,0,10.92,4,10.92,9.89,0,8.95-8.57,7.06-8.57,15.59v0.52h-5.79v-0.52Zm-0.33,2.92h6.45V383H583.2v-6.45Z" transform="translate(-198.44 -125.67)" style="fill:none;stroke:#fff;stroke-miterlimit:10;stroke-width:2px;stroke-dasharray:1"/><line x1="71.23" y1="90.67" x2="108.94" y2="188.99" style="fill:none;stroke:#48f3a5;stroke-miterlimit:10;stroke-width:2px"/><polygon points="111.67 196.11 103.72 187.65 108.74 188.46 111.92 184.51 111.67 196.11" style="fill:#48f3a5"/><line x1="190.56" y1="248.89" x2="329.05" y2="247.31" style="fill:none;stroke:#48f3a5;stroke-miterlimit:10;stroke-width:2px"/><polygon points="336.67 247.22 325.98 251.74 328.48 247.32 325.88 242.96 336.67 247.22" style="fill:#48f3a5"/><line x1="317.39" y1="85.54" x2="366.09" y2="184.82" style="fill:none;stroke:#48f3a5;stroke-miterlimit:10;stroke-width:2px"/><polygon points="369.45 191.67 360.77 183.95 365.84 184.31 368.66 180.09 369.45 191.67" style="fill:#48f3a5"/><path d="M245.69,333.55H256V335H245.69v-1.46Z" transform="translate(-198.44 -125.67)" style="fill:#48f3a5"/><path d="M263.67,324.64H267v-3.3h1.44v3.3h3.32v1.44h-3.32v3.34H267v-3.34h-3.32v-1.44Z" transform="translate(-198.44 -125.67)" style="fill:#48f3a5"/><path d="M279.24,331.7h4.54V320.76a3.31,3.31,0,0,1-2.6,1h-0.26V320H281a2.58,2.58,0,0,0,2.82-2.62h1.64v14.3h4.76v1.64h-11V331.7Z" transform="translate(-198.44 -125.67)" style="fill:#48f3a5"/><path d="M391,150.62h10.26v1.46H391v-1.46Z" transform="translate(-198.44 -125.67)" style="fill:#48f3a5"/><path d="M409.37,145.12l2.66-2.66-2.66-2.69,1-1,2.66,2.69,2.66-2.66,1,1L414,142.45l2.66,2.64-1,1L413,143.46l-2.66,2.66Z" transform="translate(-198.44 -125.67)" style="fill:#48f3a5"/><path d="M425,148.72c0-2.51,2.23-4.15,4.35-5.66,1.94-1.4,4-2.66,4-4.41s-1.22-2.88-3.25-2.88a4.06,4.06,0,0,0-3.62,2.34l-1.48-.79a5.71,5.71,0,0,1,5.09-3.08c3,0,5,2,5,4.43s-2.31,4-4.41,5.5-3.84,2.69-3.84,4.54v0h8.56v1.64H425v-1.68Z" transform="translate(-198.44 -125.67)" style="fill:#48f3a5"/><path d="M449.25,326H451V342h-1.7V326Z" transform="translate(-198.44 -125.67)" style="fill:#ec607f"/><path d="M453.49,336.5a5.67,5.67,0,1,1,5.66,5.68A5.61,5.61,0,0,1,453.49,336.5Zm9.63,0a4,4,0,1,0-4,4.15A4,4,0,0,0,463.12,336.5Z" transform="translate(-198.44 -125.67)" style="fill:#ec607f"/><path d="M467,336.5a5.54,5.54,0,0,1,5.59-5.68,5.21,5.21,0,0,1,4,2V331h1.68v10.72c0,3.32-2.1,5.52-5.39,5.52-2.66,0-4.35-1.18-5.13-3l1.66-.55a3.42,3.42,0,0,0,3.47,2.07c2.38,0,3.73-1.66,3.73-4v-1.66a5.14,5.14,0,0,1-4,2A5.57,5.57,0,0,1,467,336.5Zm9.76,0a4,4,0,1,0-4.08,4.15A4.08,4.08,0,0,0,476.79,336.5Z" transform="translate(-198.44 -125.67)" style="fill:#ec607f"/><path d="M480.88,336.5c0-5.22,2.75-8.47,6-10.87l1.18,1.33c-3.12,2.18-5.37,5.07-5.37,9.52s2.23,7.38,5.39,9.54l-1.16,1.33C483.61,345,480.88,341.7,480.88,336.5Z" transform="translate(-198.44 -125.67)" style="fill:#b3b3b3"/><path d="M490.36,342.18h10.26v1.46H490.36v-1.46Z" transform="translate(-198.44 -125.67)" style="fill:#48f3a5"/><path d="M508.33,333.27h3.32V330h1.44v3.3h3.32v1.44h-3.32V338h-1.44v-3.34h-3.32v-1.44Z" transform="translate(-198.44 -125.67)" style="fill:#48f3a5"/><path d="M524.12,342.18h10.26v1.46H524.12v-1.46Z" transform="translate(-198.44 -125.67)" style="fill:#48f3a5"/><path d="M536.66,327l1.18-1.33c3.25,2.4,6,5.66,6,10.87s-2.73,8.54-6,10.85L536.64,346c3.17-2.16,5.39-5.07,5.39-9.54S539.78,329.16,536.66,327Z" transform="translate(-198.44 -125.67)" style="fill:#b3b3b3"/><path d="M206.13,195.74h1.05l7.69,19.7h-1.05l-2.38-6h-9.58l-2.35,6h-1.08Zm-3.89,12.74h8.85l-4.43-11.36Z" transform="translate(-198.44 -125.67)" style="fill:#fff"/><path d="M276.08,406.92h7.85c3.1,0,5.48,2.13,5.48,5a4.6,4.6,0,0,1-3.16,4.48,5,5,0,0,1,3.59,4.94,5.27,5.27,0,0,1-5.56,5.29h-8.21V406.92Zm1,0.92V416h7.1a4,4,0,0,0,4.18-4.08,4.24,4.24,0,0,0-4.48-4.08h-6.8Zm0,9.07v8.8h7.15a4.4,4.4,0,1,0,0-8.8h-7.18Z" transform="translate(-198.44 -125.67)" style="fill:#fff"/><path d="M432.82,221.7a10.1,10.1,0,0,1,18.73-5.26l-0.84.49a9.1,9.1,0,1,0,.27,9.26l0.89,0.46A10.19,10.19,0,0,1,432.82,221.7Z" transform="translate(-198.44 -125.67)" style="fill:#fff"/><path d="M538.41,407.92h5.51a9.86,9.86,0,1,1,0,19.71h-5.53V407.92Zm1,0.95v17.81h4.48a8.91,8.91,0,1,0,0-17.81h-4.45Z" transform="translate(-198.44 -125.67)" style="fill:#fff"/><line x1="23.89" y1="378.33" x2="422.78" y2="378.33" style="fill:none;stroke:#000;stroke-miterlimit:10"/><line x1="111.12" y1="40" x2="217.94" y2="42.59" style="fill:none;stroke:#48f3a5;stroke-miterlimit:10;stroke-width:2px"/><polygon points="225.56 42.78 214.71 46.91 217.37 42.58 214.92 38.13 225.56 42.78" style="fill:#48f3a5"/></svg>