<svg xmlns="http://www.w3.org/2000/svg" viewBox="0 0 345.83 73.97"><title>futurice</title><path d="M445.29,76c5.71,0,9.95,2.66,11.72,7.78H433.18A12.88,12.88,0,0,1,445.29,76m10.43,23.09a13.06,13.06,0,0,1-9.9,4.48h-0.14c-7.09,0-11.52-3.55-13.11-9h38V89.71c0-14.18-10.35-25.51-25.42-25.51a25.55,25.55,0,0,0-25.6,25.61c0,14.18,10.64,25.61,26,25.61h0.24c7.94-.06,14.2-3,18.64-7.57Z" transform="translate(-124.78 -41.45)" style="fill:#fff"/><path d="M408.22,99.06a12.42,12.42,0,0,1-8.67,3.55l-0.28,0a12.8,12.8,0,0,1,0-25.58h0.28a12.43,12.43,0,0,1,9.19,4.08L418,71.84a25.25,25.25,0,0,0-18.52-7.64h-0.18a25.6,25.6,0,0,0,0,51.19h0.18a25.33,25.33,0,0,0,18-7.12Z" transform="translate(-124.78 -41.45)" style="fill:#fff"/><path d="M143.15,41.46c-9.94,0-18.12,8.72-18.37,20.27v52.7H138.3V77.3h17.52V65.15H138.3V61.88c0-4.58,2.91-7.38,6.72-7.38a6.44,6.44,0,0,1,5.34,2.9l8.23-8.23a18.28,18.28,0,0,0-15.44-7.72" transform="translate(-124.78 -41.45)" style="fill:#fff"/><path d="M195.5,65.15V92.61a9.11,9.11,0,1,1-18.22,0V65.15H163.58V92.61a22.8,22.8,0,1,0,45.61,0V65.15H195.5Z" transform="translate(-124.78 -41.45)" style="fill:#fff"/><path d="M290.34,65.15V92.61a9.11,9.11,0,1,1-18.22,0V65.15H258.43V92.61a22.8,22.8,0,0,0,45.61,0V65.15H290.34Z" transform="translate(-124.78 -41.45)" style="fill:#fff"/><path d="M231.3,65.18v0h-0.2V46.83H217.6V92.61c0,10,6.48,18.41,14.9,20.89a34.72,34.72,0,0,0,7.86.93H250v-12.6H240.4a9.15,9.15,0,0,1-9.11-9.21V77.3H250V65.18H231.3Z" transform="translate(-124.78 -41.45)" style="fill:#fff"/><polygon points="201.16 23.74 187.67 23.74 187.67 38.51 187.67 72.98 201.16 72.98 201.16 35.88 220.08 35.88 220.08 23.74 201.16 23.74" style="fill:#fff"/><rect x="228.56" y="23.74" width="13.49" height="49.24" style="fill:#fff"/><path d="M368.7,50.06a8.61,8.61,0,1,1-8.61-8.61,8.61,8.61,0,0,1,8.61,8.61" transform="translate(-124.78 -41.45)" style="fill:#fff"/></svg>