<svg xmlns="http://www.w3.org/2000/svg" viewBox="0 0 421.11 383.83"><title>inconsistency1</title><circle cx="45" cy="35.83" r="35.83" style="fill:#f6d743"/><path d="M240.11,173.65c0-5.89,5.27-9.42,9.94-12.29,3.67-2.31,7.06-4.19,7.06-6.78,0-2.17-1.84-4-5.27-4s-5.51,2-6.83,4.85l-5.65-2.83A13,13,0,0,1,251.79,145c7.53,0,12,4.24,12,9.65s-4.9,8.48-9.42,11.21c-3.91,2.4-7.63,4.52-7.68,7.72h16.91v6.26H240.11v-6.17Z" transform="translate(-207.33 -125.67)"/><circle cx="125.44" cy="243.5" r="35.83" style="fill:#f6d743"/><path d="M319.47,381.59l5.7-4.1c1.84,3.16,4.28,4.47,7.39,4.47s5.6-1.74,5.6-4.71c0-2.54-1.6-4.29-5.13-4.29h-4.52v-6h4.43c3.67,0,5-2.21,5-4.61,0-2-1.84-4-5.32-4-3.77,0-5.46,1.32-6.92,4.24l-5.7-2.83c2.5-4.8,6.78-7.11,12.57-7.11,6.78,0,11.73,3.86,11.73,9.42a9,9,0,0,1-4,7.77,8.16,8.16,0,0,1,4.38,7.63c0,5.89-4.52,10.5-12.2,10.5C326.53,388,322.77,386,319.47,381.59Z" transform="translate(-207.33 -125.67)"/><circle cx="272.67" cy="49.7" r="35.83" style="fill:#f6d743"/><path d="M481.48,186.72H467.54v-6l13.14-21.43h7.16v21.43h3.63v6h-3.63v7h-6.36v-7Zm0-6V169.1l-7.16,11.63h7.16Z" transform="translate(-207.33 -125.67)"/><circle cx="382.11" cy="239.06" r="35.83" style="fill:#f6d743"/><path d="M593.8,354.92H577.22v-6.26h23.45v5.7L587.16,383h-7Z" transform="translate(-207.33 -125.67)"/><line x1="62.34" y1="90.67" x2="100.05" y2="188.99" style="fill:none;stroke:#48f3a5;stroke-miterlimit:10;stroke-width:2px"/><polygon points="102.78 196.11 94.83 187.65 99.84 188.46 103.03 184.51 102.78 196.11" style="fill:#48f3a5"/><line x1="102.22" y1="40" x2="209.04" y2="42.59" style="fill:none;stroke:#48f3a5;stroke-miterlimit:10;stroke-width:2px"/><polygon points="216.67 42.78 205.82 46.91 208.47 42.58 206.03 38.13 216.67 42.78" style="fill:#48f3a5"/><line x1="181.67" y1="248.89" x2="320.15" y2="247.31" style="fill:none;stroke:#48f3a5;stroke-miterlimit:10;stroke-width:2px"/><polygon points="327.78 247.22 317.08 251.74 319.58 247.32 316.98 242.96 327.78 247.22" style="fill:#48f3a5"/><line x1="308.5" y1="85.54" x2="357.2" y2="184.82" style="fill:none;stroke:#48f3a5;stroke-miterlimit:10;stroke-width:2px"/><polygon points="360.56 191.67 351.88 183.95 356.95 184.31 359.76 180.09 360.56 191.67" style="fill:#48f3a5"/><path d="M245.69,333.55H256V335H245.69v-1.46Z" transform="translate(-207.33 -125.67)" style="fill:#48f3a5"/><path d="M263.67,324.64H267v-3.3h1.44v3.3h3.32v1.44h-3.32v3.34H267v-3.34h-3.32v-1.44Z" transform="translate(-207.33 -125.67)" style="fill:#48f3a5"/><path d="M279.24,331.7h4.54V320.76a3.31,3.31,0,0,1-2.6,1h-0.26V320H281a2.58,2.58,0,0,0,2.82-2.62h1.64v14.3h4.76v1.64h-11V331.7Z" transform="translate(-207.33 -125.67)" style="fill:#48f3a5"/><path d="M391,150.62h10.26v1.46H391v-1.46Z" transform="translate(-207.33 -125.67)" style="fill:#48f3a5"/><path d="M409.37,145.12l2.66-2.66-2.66-2.69,1-1,2.66,2.69,2.66-2.66,1,1L414,142.45l2.66,2.64-1,1L413,143.46l-2.66,2.66Z" transform="translate(-207.33 -125.67)" style="fill:#48f3a5"/><path d="M425,148.72c0-2.51,2.23-4.15,4.35-5.66,1.94-1.4,4-2.66,4-4.41s-1.22-2.88-3.25-2.88a4.06,4.06,0,0,0-3.62,2.34l-1.48-.79a5.71,5.71,0,0,1,5.09-3.08c3,0,5,2,5,4.43s-2.31,4-4.41,5.5-3.84,2.69-3.84,4.54v0h8.56v1.64H425v-1.68Z" transform="translate(-207.33 -125.67)" style="fill:#48f3a5"/><path d="M489.47,338.84h10.26v1.46H489.47v-1.46Z" transform="translate(-207.33 -125.67)" style="fill:#48f3a5"/><path d="M507.44,329.93h3.32v-3.3h1.44v3.3h3.32v1.44h-3.32v3.34h-1.44v-3.34h-3.32v-1.44Z" transform="translate(-207.33 -125.67)" style="fill:#48f3a5"/><path d="M523.24,338.84H533.5v1.46H523.24v-1.46Z" transform="translate(-207.33 -125.67)" style="fill:#48f3a5"/><path d="M216.13,203.74h1.05l7.69,19.7h-1.05l-2.38-6h-9.58l-2.35,6h-1.08Zm-3.89,12.74h8.85l-4.43-11.36Z" transform="translate(-207.33 -125.67)" style="fill:#fff"/><path d="M299.08,423.92h7.85c3.1,0,5.48,2.13,5.48,5a4.6,4.6,0,0,1-3.16,4.48,5,5,0,0,1,3.59,4.94,5.27,5.27,0,0,1-5.56,5.29h-8.21V423.92Zm1,0.92V433h7.1a4,4,0,0,0,4.18-4.08,4.24,4.24,0,0,0-4.48-4.08h-6.8Zm0,9.07v8.8h7.15a4.4,4.4,0,1,0,0-8.8h-7.18Z" transform="translate(-207.33 -125.67)" style="fill:#fff"/><path d="M456.82,235.7a10.1,10.1,0,0,1,18.73-5.26l-0.84.49a9.1,9.1,0,1,0,.27,9.26l0.89,0.46A10.19,10.19,0,0,1,456.82,235.7Z" transform="translate(-207.33 -125.67)" style="fill:#fff"/><path d="M562.41,423.92h5.51a9.86,9.86,0,1,1,0,19.71h-5.53V423.92Zm1,0.95v17.81h4.48a8.91,8.91,0,1,0,0-17.81h-4.45Z" transform="translate(-207.33 -125.67)" style="fill:#fff"/><line y1="383.33" x2="421.11" y2="383.33" style="fill:none;stroke:#000;stroke-miterlimit:10"/></svg>