<svg xmlns="http://www.w3.org/2000/svg" viewBox="0 0 408.78 279.33"><title>inconsistency3</title><circle cx="35.83" cy="35.83" r="35.83" style="fill:#ec607f"/><path d="M239,173.93l5.7-4.1c1.84,3.16,4.28,4.47,7.39,4.47s5.6-1.74,5.6-4.71c0-2.54-1.6-4.29-5.13-4.29h-4.52v-6h4.43c3.67,0,5-2.21,5-4.61,0-2-1.84-4-5.32-4-3.77,0-5.46,1.32-6.92,4.24l-5.7-2.83c2.5-4.8,6.78-7.11,12.57-7.11,6.78,0,11.73,3.86,11.73,9.42a9,9,0,0,1-4,7.77,8.16,8.16,0,0,1,4.38,7.63c0,5.89-4.52,10.5-12.2,10.5C246.09,180.29,242.32,178.35,239,173.93Z" transform="translate(-216.5 -125.67)" style="fill:#fff"/><circle cx="116.28" cy="243.5" r="35.83" style="fill:#ec607f"/><path d="M334.26,380.51H320.32v-6l13.14-21.43h7.16v21.43h3.63v6h-3.63v7h-6.36v-7Zm0-6V362.9l-7.16,11.63h7.16Z" transform="translate(-216.5 -125.67)" style="fill:#fff"/><circle cx="263.5" cy="49.7" r="35.83" style="fill:#f6d743"/><path d="M481.48,186.72H467.54v-6l13.14-21.43h7.16v21.43h3.63v6h-3.63v7h-6.36v-7Zm0-6V169.1l-7.16,11.63h7.16Z" transform="translate(-216.5 -125.67)"/><circle cx="372.94" cy="239.06" r="35.83" style="fill:#f6d743"/><path d="M593.8,354.92H577.22v-6.26h23.45v5.7L587.16,383h-7Z" transform="translate(-216.5 -125.67)"/><line x1="53.17" y1="90.67" x2="90.88" y2="188.99" style="fill:none;stroke:#48f3a5;stroke-miterlimit:10;stroke-width:2px"/><polygon points="93.61 196.11 85.66 187.65 90.68 188.46 93.86 184.51 93.61 196.11" style="fill:#48f3a5"/><line x1="93.06" y1="40" x2="199.88" y2="42.59" style="fill:none;stroke:#48f3a5;stroke-miterlimit:10;stroke-width:2px"/><polygon points="207.5 42.78 196.65 46.91 199.31 42.58 196.87 38.13 207.5 42.78" style="fill:#48f3a5"/><line x1="172.5" y1="248.89" x2="310.99" y2="247.31" style="fill:none;stroke:#48f3a5;stroke-miterlimit:10;stroke-width:2px"/><polygon points="318.61 247.22 307.92 251.74 310.42 247.32 307.82 242.96 318.61 247.22" style="fill:#48f3a5"/><line x1="299.33" y1="85.54" x2="348.03" y2="184.82" style="fill:none;stroke:#48f3a5;stroke-miterlimit:10;stroke-width:2px"/><polygon points="351.39 191.67 342.71 183.95 347.78 184.31 350.6 180.09 351.39 191.67" style="fill:#48f3a5"/><path d="M245.69,333.55H256V335H245.69v-1.46Z" transform="translate(-216.5 -125.67)" style="fill:#48f3a5"/><path d="M263.67,324.64H267v-3.3h1.44v3.3h3.32v1.44h-3.32v3.34H267v-3.34h-3.32v-1.44Z" transform="translate(-216.5 -125.67)" style="fill:#48f3a5"/><path d="M279.24,331.7h4.54V320.76a3.31,3.31,0,0,1-2.6,1h-0.26V320H281a2.58,2.58,0,0,0,2.82-2.62h1.64v14.3h4.76v1.64h-11V331.7Z" transform="translate(-216.5 -125.67)" style="fill:#48f3a5"/><path d="M391,150.62h10.26v1.46H391v-1.46Z" transform="translate(-216.5 -125.67)" style="fill:#48f3a5"/><path d="M409.37,145.12l2.66-2.66-2.66-2.69,1-1,2.66,2.69,2.66-2.66,1,1L414,142.45l2.66,2.64-1,1L413,143.46l-2.66,2.66Z" transform="translate(-216.5 -125.67)" style="fill:#48f3a5"/><path d="M425,148.72c0-2.51,2.23-4.15,4.35-5.66,1.94-1.4,4-2.66,4-4.41s-1.22-2.88-3.25-2.88a4.06,4.06,0,0,0-3.62,2.34l-1.48-.79a5.71,5.71,0,0,1,5.09-3.08c3,0,5,2,5,4.43s-2.31,4-4.41,5.5-3.84,2.69-3.84,4.54v0h8.56v1.64H425v-1.68Z" transform="translate(-216.5 -125.67)" style="fill:#48f3a5"/><path d="M489.47,338.84h10.26v1.46H489.47v-1.46Z" transform="translate(-216.5 -125.67)" style="fill:#48f3a5"/><path d="M507.44,329.93h3.32v-3.3h1.44v3.3h3.32v1.44h-3.32v3.34h-1.44v-3.34h-3.32v-1.44Z" transform="translate(-216.5 -125.67)" style="fill:#48f3a5"/><path d="M523.24,338.84H533.5v1.46H523.24v-1.46Z" transform="translate(-216.5 -125.67)" style="fill:#48f3a5"/></svg>