<svg xmlns="http://www.w3.org/2000/svg" viewBox="0 0 408.78 279.33"><title>inconsistency6</title><circle cx="35.83" cy="35.83" r="35.83" style="fill:#ec607f"/><path d="M239,173.93l5.7-4.1c1.84,3.16,4.28,4.47,7.39,4.47s5.6-1.74,5.6-4.71c0-2.54-1.6-4.29-5.13-4.29h-4.52v-6h4.43c3.67,0,5-2.21,5-4.61,0-2-1.84-4-5.32-4-3.77,0-5.46,1.32-6.92,4.24l-5.7-2.83c2.5-4.8,6.78-7.11,12.57-7.11,6.78,0,11.73,3.86,11.73,9.42a9,9,0,0,1-4,7.77,8.16,8.16,0,0,1,4.38,7.63c0,5.89-4.52,10.5-12.2,10.5C246.09,180.29,242.32,178.35,239,173.93Z" transform="translate(-216.5 -125.67)" style="fill:#fff"/><circle cx="116.28" cy="243.5" r="35.83" style="fill:#ec607f"/><path d="M334.26,380.51H320.32v-6l13.14-21.43h7.16v21.43h3.63v6h-3.63v7h-6.36v-7Zm0-6V362.9l-7.16,11.63h7.16Z" transform="translate(-216.5 -125.67)" style="fill:#fff"/><circle cx="263.5" cy="49.7" r="35.83" style="fill:#ec607f"/><path d="M467.07,182.24a15.7,15.7,0,0,1,2.64-8.66l8.81-14.27h7.72L479,170.56a6.29,6.29,0,0,1,1.88-.28c6.12,0,11.07,4.9,11.07,11.91s-5.32,12-12.38,12C472.3,194.16,467.07,188.88,467.07,182.24Zm18.41-.19a6.19,6.19,0,0,0-6.07-6.12,6.15,6.15,0,0,0,0,12.29A6.17,6.17,0,0,0,485.48,182.05Z" transform="translate(-216.5 -125.67)" style="fill:#fff"/><path d="M589.44,395.06a30.33,30.33,0,1,1,30.33-30.33A30.37,30.37,0,0,1,589.44,395.06Z" transform="translate(-216.5 -125.67)" style="fill:#ec607f"/><path d="M589.44,339.89a24.83,24.83,0,1,1-24.83,24.83,24.86,24.86,0,0,1,24.83-24.83m0-11a35.83,35.83,0,1,0,35.83,35.83,35.83,35.83,0,0,0-35.83-35.83h0Z" transform="translate(-216.5 -125.67)" style="fill:#ec607f"/><path d="M570.77,373.12h6.73V358.65a5.65,5.65,0,0,1-4.37,2.22h-0.41v-5.4h0.18c3.55,0,4.77-2.52,4.77-4.44h5v22.09h6.55V378H570.77v-4.92Z" transform="translate(-216.5 -125.67)" style="fill:#fff"/><path d="M592.52,369.6v-9.92a9.22,9.22,0,0,1,18.43,0v10c0,5.29-3.44,8.81-9.21,8.81C595.78,378.41,592.52,374.78,592.52,369.6Zm13.28-.22v-9.51a3.8,3.8,0,0,0-4-4.14,3.89,3.89,0,0,0-4.11,4.14v9.47a3.73,3.73,0,0,0,4,4A3.8,3.8,0,0,0,605.81,369.38Z" transform="translate(-216.5 -125.67)" style="fill:#fff"/><line x1="53.17" y1="90.67" x2="90.88" y2="188.99" style="fill:none;stroke:#48f3a5;stroke-miterlimit:10;stroke-width:2px"/><polygon points="93.61 196.11 85.66 187.65 90.68 188.46 93.86 184.51 93.61 196.11" style="fill:#48f3a5"/><line x1="93.06" y1="40" x2="199.88" y2="42.59" style="fill:none;stroke:#48f3a5;stroke-miterlimit:10;stroke-width:2px"/><polygon points="207.5 42.78 196.65 46.91 199.31 42.58 196.87 38.13 207.5 42.78" style="fill:#48f3a5"/><line x1="172.5" y1="248.89" x2="310.99" y2="247.31" style="fill:none;stroke:#48f3a5;stroke-miterlimit:10;stroke-width:2px"/><polygon points="318.61 247.22 307.92 251.74 310.42 247.32 307.82 242.96 318.61 247.22" style="fill:#48f3a5"/><line x1="299.33" y1="85.54" x2="348.03" y2="184.82" style="fill:none;stroke:#48f3a5;stroke-miterlimit:10;stroke-width:2px"/><polygon points="351.39 191.67 342.71 183.95 347.78 184.31 350.6 180.09 351.39 191.67" style="fill:#48f3a5"/><path d="M245.69,333.55H256V335H245.69v-1.46Z" transform="translate(-216.5 -125.67)" style="fill:#48f3a5"/><path d="M263.67,324.64H267v-3.3h1.44v3.3h3.32v1.44h-3.32v3.34H267v-3.34h-3.32v-1.44Z" transform="translate(-216.5 -125.67)" style="fill:#48f3a5"/><path d="M279.24,331.7h4.54V320.76a3.31,3.31,0,0,1-2.6,1h-0.26V320H281a2.58,2.58,0,0,0,2.82-2.62h1.64v14.3h4.76v1.64h-11V331.7Z" transform="translate(-216.5 -125.67)" style="fill:#48f3a5"/><path d="M391,150.62h10.26v1.46H391v-1.46Z" transform="translate(-216.5 -125.67)" style="fill:#48f3a5"/><path d="M409.37,145.12l2.66-2.66-2.66-2.69,1-1,2.66,2.69,2.66-2.66,1,1L414,142.45l2.66,2.64-1,1L413,143.46l-2.66,2.66Z" transform="translate(-216.5 -125.67)" style="fill:#48f3a5"/><path d="M425,148.72c0-2.51,2.23-4.15,4.35-5.66,1.94-1.4,4-2.66,4-4.41s-1.22-2.88-3.25-2.88a4.06,4.06,0,0,0-3.62,2.34l-1.48-.79a5.71,5.71,0,0,1,5.09-3.08c3,0,5,2,5,4.43s-2.31,4-4.41,5.5-3.84,2.69-3.84,4.54v0h8.56v1.64H425v-1.68Z" transform="translate(-216.5 -125.67)" style="fill:#48f3a5"/><path d="M489.47,338.84h10.26v1.46H489.47v-1.46Z" transform="translate(-216.5 -125.67)" style="fill:#48f3a5"/><path d="M507.44,329.93h3.32v-3.3h1.44v3.3h3.32v1.44h-3.32v3.34h-1.44v-3.34h-3.32v-1.44Z" transform="translate(-216.5 -125.67)" style="fill:#48f3a5"/><path d="M523.24,338.84H533.5v1.46H523.24v-1.46Z" transform="translate(-216.5 -125.67)" style="fill:#48f3a5"/></svg>