<svg xmlns="http://www.w3.org/2000/svg" viewBox="0 0 434.88 179.64"><title>vaguely-how</title><path d="M293.59,185.07h-5.28v5h-1.74V178.43h1.74v5h5.28v-5h1.73v11.68h-1.73v-5Z" transform="translate(-264.42 -123.03)" style="fill:#f2f2f2"/><path d="M296.75,186.14a4.12,4.12,0,0,1,4.16-4.19A4,4,0,0,1,305,186v0.67H298.4a2.45,2.45,0,0,0,2.58,2,2.51,2.51,0,0,0,2.34-1.44l1.41,0.78A4.26,4.26,0,0,1,296.75,186.14Zm1.73-.9h4.8a2.23,2.23,0,0,0-2.37-1.79A2.49,2.49,0,0,0,298.48,185.24Z" transform="translate(-264.42 -123.03)" style="fill:#f2f2f2"/><path d="M306.13,186.11a4,4,0,0,1,4-4.16,3.45,3.45,0,0,1,2.66,1.2v-1h1.71v8h-1.71V189a3.41,3.41,0,0,1-2.67,1.26A4,4,0,0,1,306.13,186.11Zm6.75,0a2.53,2.53,0,1,0-2.53,2.61A2.53,2.53,0,0,0,312.89,186.09Z" transform="translate(-264.42 -123.03)" style="fill:#f2f2f2"/><path d="M317.92,189.12v4.67h-1.7V182.11h1.7v1.12a3.37,3.37,0,0,1,2.67-1.28,4,4,0,0,1,4,4.16,4,4,0,0,1-4,4.16A3.38,3.38,0,0,1,317.92,189.12Zm5-3a2.53,2.53,0,1,0-2.53,2.61A2.53,2.53,0,0,0,322.89,186.09Z" transform="translate(-264.42 -123.03)" style="fill:#f2f2f2"/><path d="M329.31,188.41l1.54-.8a2.28,2.28,0,0,0,2,1.17,1.23,1.23,0,0,0,1.46-1.06c0-.64-0.93-0.78-1.94-1-1.36-.29-2.77-0.74-2.77-2.38,0-1.26,1.2-2.43,3.09-2.42a3.64,3.64,0,0,1,3.22,1.55l-1.42.78a2.07,2.07,0,0,0-1.79-.91,1.15,1.15,0,0,0-1.38,1c0,0.58.74,0.74,1.89,1,1.31,0.29,2.8.72,2.8,2.38,0,1.1-1,2.59-3.23,2.58A3.74,3.74,0,0,1,329.31,188.41Z" transform="translate(-264.42 -123.03)" style="fill:#f2f2f2"/><path d="M336.95,182.11h1.36v-1.89l1.73-.94v2.83h1.7v1.54H340v3.19c0,1.44.22,1.66,1.7,1.66v1.62h-0.26c-2.43,0-3.17-.77-3.17-3.27v-3.2h-1.36v-1.54Z" transform="translate(-264.42 -123.03)" style="fill:#f2f2f2"/><path d="M342.56,186.11a4,4,0,0,1,4-4.16,3.45,3.45,0,0,1,2.66,1.2v-1h1.71v8h-1.71V189a3.41,3.41,0,0,1-2.67,1.26A4,4,0,0,1,342.56,186.11Zm6.75,0a2.53,2.53,0,1,0-2.53,2.61A2.53,2.53,0,0,0,349.32,186.09Z" transform="translate(-264.42 -123.03)" style="fill:#f2f2f2"/><path d="M352.23,182.11h1.36v-1.89l1.73-.94v2.83H357v1.54h-1.7v3.19c0,1.44.22,1.66,1.7,1.66v1.62h-0.26c-2.43,0-3.17-.77-3.17-3.27v-3.2h-1.36v-1.54Z" transform="translate(-264.42 -123.03)" style="fill:#f2f2f2"/><path d="M357.84,186.14a4.12,4.12,0,0,1,4.16-4.19,4,4,0,0,1,4.11,4.08v0.67h-6.63a2.45,2.45,0,0,0,2.58,2,2.51,2.51,0,0,0,2.34-1.44l1.41,0.78A4.26,4.26,0,0,1,357.84,186.14Zm1.73-.9h4.8a2.23,2.23,0,0,0-2.37-1.79A2.49,2.49,0,0,0,359.57,185.24Z" transform="translate(-264.42 -123.03)" style="fill:#f2f2f2"/><path d="M294.8,214V211.2h-1.64v-0.74l1.68-.06,0.13-1.87h0.82v1.87h2.87v0.8h-2.87V214c0,1,.35,1.6,1.48,1.6a3.85,3.85,0,0,0,1.4-.26l0.22,0.72a5.08,5.08,0,0,1-1.82.35C295.36,216.37,294.8,215.39,294.8,214Z" transform="translate(-264.42 -123.03)" style="fill:#ec607f"/><path d="M300.65,207.68h1V210l-0.06,1.38h0a3,3,0,0,1,2.18-1.14c1.38,0,2,.82,2,2.35v3.62h-1v-3.49c0-1.1-.38-1.63-1.34-1.63a2.52,2.52,0,0,0-1.85,1.06v4.07h-1v-8.54Z" transform="translate(-264.42 -123.03)" style="fill:#ec607f"/><path d="M310.52,211.2h-2.71v-0.8h3.69v5.83h-1v-5Zm-0.41-2.79a0.79,0.79,0,1,1,.79.77A0.76,0.76,0,0,1,310.12,208.4Z" transform="translate(-264.42 -123.03)" style="fill:#ec607f"/><path d="M314.78,215.45l0.46-.65a4.14,4.14,0,0,0,2.53.79c1,0,1.48-.42,1.48-0.91s-0.24-.76-1.82-1.08-2.28-.83-2.28-1.7,0.83-1.65,2.42-1.65a4.37,4.37,0,0,1,2.35.74l-0.48.64a3.44,3.44,0,0,0-2-.61c-1,0-1.34.4-1.34,0.84s0.5,0.72,1.69,1c1.94,0.42,2.41.91,2.41,1.8s-0.92,1.74-2.59,1.74A5.12,5.12,0,0,1,314.78,215.45Z" transform="translate(-264.42 -123.03)" style="fill:#ec607f"/><path d="M323.76,215.36a1,1,0,1,1,1,1A1,1,0,0,1,323.76,215.36Z" transform="translate(-264.42 -123.03)" style="fill:#b3b3b3"/><path d="M329.45,210.39h0.82l0.08,0.74h0a3.07,3.07,0,0,1,2-.89c1.57,0,2.41,1.16,2.41,3,0,2-1.25,3.14-2.65,3.14a2.74,2.74,0,0,1-1.74-.76h0l0,1.1v2h-1v-8.29Zm4.34,2.83c0-1.28-.48-2.15-1.64-2.15a2.54,2.54,0,0,0-1.72.88v2.9a2.51,2.51,0,0,0,1.56.68C333,215.54,333.79,214.66,333.79,213.22Z" transform="translate(-264.42 -123.03)" style="fill:#f6d743"/><path d="M337.28,210.39h0.82l0.08,1.38h0a3.1,3.1,0,0,1,2.6-1.52,2.45,2.45,0,0,1,1.15.24l-0.23.85a2.7,2.7,0,0,0-1.08-.2,2.76,2.76,0,0,0-2.4,1.67v3.42h-1v-5.83Z" transform="translate(-264.42 -123.03)" style="fill:#f6d743"/><path d="M343.45,213.32a2.88,2.88,0,1,1,2.88,3A2.86,2.86,0,0,1,343.45,213.32Zm4.74,0a1.89,1.89,0,1,0-1.86,2.23A2,2,0,0,0,348.19,213.32Z" transform="translate(-264.42 -123.03)" style="fill:#f6d743"/><path d="M351,210.39h0.82l0.08,0.74h0a3.07,3.07,0,0,1,2-.89c1.57,0,2.41,1.16,2.41,3,0,2-1.25,3.14-2.65,3.14a2.74,2.74,0,0,1-1.74-.76h0l0,1.1v2h-1v-8.29Zm4.34,2.83c0-1.28-.48-2.15-1.64-2.15A2.54,2.54,0,0,0,352,212v2.9a2.51,2.51,0,0,0,1.56.68C354.63,215.54,355.39,214.66,355.39,213.22Z" transform="translate(-264.42 -123.03)" style="fill:#f6d743"/><path d="M358,215.45l0.46-.65a4.14,4.14,0,0,0,2.53.79c1,0,1.48-.42,1.48-0.91s-0.24-.76-1.82-1.08-2.28-.83-2.28-1.7,0.83-1.65,2.42-1.65a4.37,4.37,0,0,1,2.35.74l-0.48.64a3.44,3.44,0,0,0-2-.61c-1,0-1.34.4-1.34,0.84s0.5,0.72,1.69,1c1.94,0.42,2.41.91,2.41,1.8s-0.92,1.74-2.59,1.74A5.12,5.12,0,0,1,358,215.45Z" transform="translate(-264.42 -123.03)" style="fill:#f6d743"/><path d="M294.8,228.36V225.6h-1.64v-0.74l1.68-.06,0.13-1.87h0.82v1.87h2.87v0.8h-2.87v2.77c0,1,.35,1.6,1.48,1.6a3.85,3.85,0,0,0,1.4-.26l0.22,0.72a5.08,5.08,0,0,1-1.82.35C295.36,230.77,294.8,229.79,294.8,228.36Z" transform="translate(-264.42 -123.03)" style="fill:#ec607f"/><path d="M300.65,222.08h1v2.33l-0.06,1.38h0a3,3,0,0,1,2.18-1.14c1.38,0,2,.82,2,2.35v3.62h-1v-3.49c0-1.1-.38-1.63-1.34-1.63a2.52,2.52,0,0,0-1.85,1.06v4.07h-1v-8.54Z" transform="translate(-264.42 -123.03)" style="fill:#ec607f"/><path d="M310.52,225.6h-2.71v-0.8h3.69v5.83h-1v-5Zm-0.41-2.79a0.79,0.79,0,1,1,.79.77A0.76,0.76,0,0,1,310.12,222.8Z" transform="translate(-264.42 -123.03)" style="fill:#ec607f"/><path d="M314.78,229.85l0.46-.65a4.14,4.14,0,0,0,2.53.79c1,0,1.48-.42,1.48-0.91s-0.24-.76-1.82-1.08-2.28-.83-2.28-1.7,0.83-1.66,2.42-1.66a4.37,4.37,0,0,1,2.35.74l-0.48.64a3.44,3.44,0,0,0-2-.61c-1,0-1.34.4-1.34,0.84s0.5,0.72,1.69,1c1.94,0.42,2.41.91,2.41,1.8s-0.92,1.74-2.59,1.74A5.12,5.12,0,0,1,314.78,229.85Z" transform="translate(-264.42 -123.03)" style="fill:#ec607f"/><path d="M323.76,229.76a1,1,0,1,1,1,1A1,1,0,0,1,323.76,229.76Z" transform="translate(-264.42 -123.03)" style="fill:#b3b3b3"/><path d="M329.18,229.85l0.46-.65a4.14,4.14,0,0,0,2.53.79c1,0,1.48-.42,1.48-0.91s-0.24-.76-1.82-1.08-2.28-.83-2.28-1.7,0.83-1.66,2.42-1.66a4.37,4.37,0,0,1,2.35.74l-0.48.64a3.44,3.44,0,0,0-2-.61c-1,0-1.34.4-1.34,0.84s0.5,0.72,1.69,1c1.94,0.42,2.41.91,2.41,1.8s-0.92,1.74-2.59,1.74A5.12,5.12,0,0,1,329.18,229.85Z" transform="translate(-264.42 -123.03)" style="fill:#f6d743"/><path d="M338,228.36V225.6h-1.64v-0.74l1.68-.06,0.13-1.87H339v1.87h2.87v0.8H339v2.77c0,1,.35,1.6,1.48,1.6a3.85,3.85,0,0,0,1.4-.26l0.22,0.72a5.08,5.08,0,0,1-1.82.35C338.56,230.77,338,229.79,338,228.36Z" transform="translate(-264.42 -123.03)" style="fill:#f6d743"/><path d="M343.7,229.11c0-1.31,1.21-1.94,4.22-2.18a1.38,1.38,0,0,0-1.55-1.46,4.06,4.06,0,0,0-2,.7l-0.38-.67a5,5,0,0,1,2.59-.84,2.16,2.16,0,0,1,2.36,2.4v3.57h-0.8l-0.08-.79h0a4,4,0,0,1-2.3.94A1.76,1.76,0,0,1,343.7,229.11Zm4.22,0v-1.54c-2.49.2-3.26,0.7-3.26,1.46a1.08,1.08,0,0,0,1.28.94A3.15,3.15,0,0,0,347.93,229.11Z" transform="translate(-264.42 -123.03)" style="fill:#f6d743"/><path d="M352.4,228.36V225.6h-1.64v-0.74l1.68-.06,0.13-1.87h0.82v1.87h2.87v0.8h-2.87v2.77c0,1,.35,1.6,1.48,1.6a3.85,3.85,0,0,0,1.4-.26l0.22,0.72a5.08,5.08,0,0,1-1.82.35C353,230.77,352.4,229.79,352.4,228.36Z" transform="translate(-264.42 -123.03)" style="fill:#f6d743"/><path d="M357.95,227.7a2.93,2.93,0,0,1,3-3,2.51,2.51,0,0,1,2.66,2.73,4,4,0,0,1,0,.6h-4.59a2.09,2.09,0,0,0,2.27,2,3.17,3.17,0,0,0,1.77-.55l0.36,0.65a4,4,0,0,1-2.25.7A3,3,0,0,1,357.95,227.7Zm1-.48h3.72a1.67,1.67,0,0,0-1.74-1.79A2,2,0,0,0,359,227.22Z" transform="translate(-264.42 -123.03)" style="fill:#f6d743"/><path d="M294.8,298.29v-2.76h-1.64v-0.74l1.68-.06,0.13-1.87h0.82v1.87h2.87v0.8h-2.87v2.77c0,1,.35,1.59,1.48,1.59a3.84,3.84,0,0,0,1.4-.26l0.22,0.72a5.1,5.1,0,0,1-1.82.35C295.36,300.7,294.8,299.73,294.8,298.29Z" transform="translate(-264.42 -123.03)" style="fill:#ec607f"/><path d="M300.65,292h1v2.33l-0.06,1.38h0a3,3,0,0,1,2.18-1.14c1.38,0,2,.82,2,2.35v3.62h-1v-3.49c0-1.1-.38-1.63-1.34-1.63a2.52,2.52,0,0,0-1.85,1.05v4.07h-1V292Z" transform="translate(-264.42 -123.03)" style="fill:#ec607f"/><path d="M310.52,295.53h-2.71v-0.8h3.69v5.83h-1v-5Zm-0.41-2.79a0.79,0.79,0,1,1,.79.77A0.76,0.76,0,0,1,310.12,292.74Z" transform="translate(-264.42 -123.03)" style="fill:#ec607f"/><path d="M314.78,299.79l0.46-.65a4.14,4.14,0,0,0,2.53.79c1,0,1.48-.42,1.48-0.91s-0.24-.76-1.82-1.08-2.28-.83-2.28-1.7,0.83-1.65,2.42-1.65a4.38,4.38,0,0,1,2.35.74l-0.48.64a3.44,3.44,0,0,0-2-.61c-1,0-1.34.4-1.34,0.84s0.5,0.72,1.69,1c1.94,0.42,2.41.91,2.41,1.8s-0.92,1.74-2.59,1.74A5.13,5.13,0,0,1,314.78,299.79Z" transform="translate(-264.42 -123.03)" style="fill:#ec607f"/><path d="M323.76,299.69a1,1,0,1,1,1,1A1,1,0,0,1,323.76,299.69Z" transform="translate(-264.42 -123.03)" style="fill:#b3b3b3"/><path d="M330.08,294.73h0.82l0.08,1.38h0a3.1,3.1,0,0,1,2.6-1.52,2.45,2.45,0,0,1,1.15.24l-0.23.85a2.71,2.71,0,0,0-1.08-.2,2.76,2.76,0,0,0-2.4,1.67v3.42h-1v-5.83Z" transform="translate(-264.42 -123.03)" style="fill:#f6d743"/><path d="M336.35,297.63a2.93,2.93,0,0,1,3-3,2.51,2.51,0,0,1,2.66,2.73,4,4,0,0,1,0,.6h-4.59a2.09,2.09,0,0,0,2.27,2,3.18,3.18,0,0,0,1.77-.55l0.36,0.65a4,4,0,0,1-2.25.7A3,3,0,0,1,336.35,297.63Zm1-.48h3.72a1.67,1.67,0,0,0-1.74-1.79A2,2,0,0,0,337.37,297.15Z" transform="translate(-264.42 -123.03)" style="fill:#f6d743"/><path d="M343.85,294.73h0.82l0.08,1h0a3,3,0,0,1,2.19-1.14c1.38,0,2,.82,2,2.35v3.62h-1v-3.49c0-1.1-.38-1.63-1.34-1.63a2.52,2.52,0,0,0-1.85,1.05v4.07h-1v-5.83Z" transform="translate(-264.42 -123.03)" style="fill:#f6d743"/><path d="M350.65,297.65a2.81,2.81,0,0,1,2.65-3.07,2.42,2.42,0,0,1,1.74.75h0l0-1.08V292h1v8.54H355.2l-0.08-.77h0a2.8,2.8,0,0,1-1.9.91C351.66,300.7,350.65,299.6,350.65,297.65ZM355,299v-2.9a2.21,2.21,0,0,0-1.54-.68,2,2,0,0,0-1.82,2.23c0,1.39.64,2.23,1.71,2.23A2.24,2.24,0,0,0,355,299Z" transform="translate(-264.42 -123.03)" style="fill:#f6d743"/><path d="M357.95,297.63a2.93,2.93,0,0,1,3-3,2.51,2.51,0,0,1,2.66,2.73,4,4,0,0,1,0,.6h-4.59a2.09,2.09,0,0,0,2.27,2,3.18,3.18,0,0,0,1.77-.55l0.36,0.65a4,4,0,0,1-2.25.7A3,3,0,0,1,357.95,297.63Zm1-.48h3.72a1.67,1.67,0,0,0-1.74-1.79A2,2,0,0,0,359,297.15Z" transform="translate(-264.42 -123.03)" style="fill:#f6d743"/><path d="M366.08,294.73h0.82l0.08,1.38h0a3.1,3.1,0,0,1,2.6-1.52,2.45,2.45,0,0,1,1.15.24l-0.23.85a2.71,2.71,0,0,0-1.08-.2,2.76,2.76,0,0,0-2.4,1.67v3.42h-1v-5.83Z" transform="translate(-264.42 -123.03)" style="fill:#f6d743"/><path d="M374,297.22a6.69,6.69,0,0,1,2.7-5.45l0.54,0.5a6.37,6.37,0,0,0,0,9.88l-0.54.5A6.68,6.68,0,0,1,374,297.22Z" transform="translate(-264.42 -123.03)" style="fill:#b3b3b3"/><path d="M380.19,302.16a6.37,6.37,0,0,0,0-9.88l0.54-.5a6.84,6.84,0,0,1,0,10.89Z" transform="translate(-264.42 -123.03)" style="fill:#b3b3b3"/><path d="M475.73,172.87h6.61v1.65h-4.87v3.35h4.87v1.65h-4.87v5h-1.74V172.87Z" transform="translate(-264.42 -123.03)" style="fill:#f2f2f2"/><path d="M483.92,176.55h1.71v1.23a2.32,2.32,0,0,1,2.21-1.23h0.94v1.63h-1.2c-1.39,0-1.94.74-1.94,2.4v4h-1.73v-8Z" transform="translate(-264.42 -123.03)" style="fill:#f2f2f2"/><path d="M489.49,180.55a4,4,0,0,1,4-4.16,3.44,3.44,0,0,1,2.66,1.2v-1h1.71v8h-1.71v-1.1a3.4,3.4,0,0,1-2.67,1.26A4,4,0,0,1,489.49,180.55Zm6.75,0a2.53,2.53,0,1,0-2.53,2.61A2.53,2.53,0,0,0,496.25,180.54Z" transform="translate(-264.42 -123.03)" style="fill:#f2f2f2"/><path d="M499.59,176.55h1.7v1a2.8,2.8,0,0,1,2.35-1.12,2.77,2.77,0,0,1,2.64,1.44,3.1,3.1,0,0,1,2.71-1.44,3,3,0,0,1,3.31,3.36v4.8h-1.74v-4.69a1.77,1.77,0,0,0-1.86-2,1.9,1.9,0,0,0-1.9,2.16v4.51h-1.73v-4.77a1.71,1.71,0,0,0-1.81-1.9,1.94,1.94,0,0,0-2,2.23v4.45h-1.71v-8Z" transform="translate(-264.42 -123.03)" style="fill:#f2f2f2"/><path d="M513.64,180.59a4.12,4.12,0,0,1,4.16-4.19,4,4,0,0,1,4.11,4.08v0.67h-6.63a2.45,2.45,0,0,0,2.58,2,2.51,2.51,0,0,0,2.34-1.44l1.41,0.78A4.26,4.26,0,0,1,513.64,180.59Zm1.73-.9h4.8a2.23,2.23,0,0,0-2.37-1.79A2.49,2.49,0,0,0,515.36,179.69Z" transform="translate(-264.42 -123.03)" style="fill:#f2f2f2"/><path d="M522.48,176.54l1.75,0,1.82,5.68,2.1-5.68h1.7l2.06,5.68,1.89-5.68h1.74l-2.79,8h-1.65L529,178.84l-2.16,5.71h-1.68Z" transform="translate(-264.42 -123.03)" style="fill:#f2f2f2"/><path d="M536,180.55a4.15,4.15,0,1,1,4.15,4.16A4.12,4.12,0,0,1,536,180.55Zm6.61,0a2.46,2.46,0,1,0-2.46,2.56A2.51,2.51,0,0,0,542.65,180.55Z" transform="translate(-264.42 -123.03)" style="fill:#f2f2f2"/><path d="M545.7,176.55h1.71v1.23a2.32,2.32,0,0,1,2.21-1.23h0.94v1.63h-1.2c-1.39,0-1.94.74-1.94,2.4v4H545.7v-8Z" transform="translate(-264.42 -123.03)" style="fill:#f2f2f2"/><path d="M555,181l-1.34,1.47v2.08H552V172.87h1.7v7.65l3.6-4h2.06L556.2,180l3.2,4.58h-1.92Z" transform="translate(-264.42 -123.03)" style="fill:#f2f2f2"/><path d="M559.44,180.59a4.12,4.12,0,0,1,4.16-4.19,4,4,0,0,1,4.11,4.08v0.67h-6.63a2.45,2.45,0,0,0,2.58,2,2.51,2.51,0,0,0,2.34-1.44l1.41,0.78A4.26,4.26,0,0,1,559.44,180.59Zm1.73-.9H566a2.23,2.23,0,0,0-2.37-1.79A2.49,2.49,0,0,0,561.17,179.69Z" transform="translate(-264.42 -123.03)" style="fill:#f2f2f2"/><path d="M571.4,184.14l-3.31-7.59h1.84l2.34,5.55,2.21-5.55h1.81l-4.83,11.7h-1.76Z" transform="translate(-264.42 -123.03)" style="fill:#f2f2f2"/><path d="M487.12,192.07h3.63a3.84,3.84,0,0,1,4.13,3.81,3.58,3.58,0,0,1-2.53,3.54l2.79,4.34h-2l-3.52-5.57h0.94a2.38,2.38,0,0,0,2.58-2.3c0-1.31-.85-2.19-2.56-2.19h-1.71v10.07h-1.75V192.07Z" transform="translate(-264.42 -123.03)" style="fill:#f2f2f2"/><path d="M495.55,199.79a4.12,4.12,0,0,1,4.16-4.19,4,4,0,0,1,4.11,4.08v0.67H497.2a2.45,2.45,0,0,0,2.58,2,2.51,2.51,0,0,0,2.34-1.44l1.41,0.78A4.26,4.26,0,0,1,495.55,199.79Zm1.73-.9h4.8a2.23,2.23,0,0,0-2.37-1.79A2.49,2.49,0,0,0,497.28,198.89Z" transform="translate(-264.42 -123.03)" style="fill:#f2f2f2"/><path d="M504.92,199.75a4.12,4.12,0,0,1,4.18-4.16,4,4,0,0,1,3.79,2.45l-1.54.66a2.39,2.39,0,0,0-2.26-1.5,2.49,2.49,0,0,0-2.5,2.56,2.52,2.52,0,0,0,2.53,2.56,2.41,2.41,0,0,0,2.26-1.57l1.55,0.66a4,4,0,0,1-3.84,2.51A4.13,4.13,0,0,1,504.92,199.75Z" transform="translate(-264.42 -123.03)" style="fill:#f2f2f2"/><path d="M513.85,199.75a4.15,4.15,0,1,1,4.15,4.16A4.12,4.12,0,0,1,513.85,199.75Zm6.61,0a2.46,2.46,0,1,0-2.46,2.56A2.51,2.51,0,0,0,520.46,199.75Z" transform="translate(-264.42 -123.03)" style="fill:#f2f2f2"/><path d="M523.52,195.75h1.7v1a3,3,0,0,1,2.46-1.2c2,0,3.25,1.31,3.25,3.49v4.67H529.2v-4.53a1.86,1.86,0,0,0-1.94-2.15,2.06,2.06,0,0,0-2,2.27v4.4h-1.71v-8Z" transform="translate(-264.42 -123.03)" style="fill:#f2f2f2"/><path d="M532.27,199.75a4.12,4.12,0,0,1,4.18-4.16,4,4,0,0,1,3.79,2.45l-1.54.66a2.39,2.39,0,0,0-2.26-1.5,2.49,2.49,0,0,0-2.5,2.56,2.52,2.52,0,0,0,2.53,2.56,2.41,2.41,0,0,0,2.26-1.57l1.55,0.66a4,4,0,0,1-3.84,2.51A4.13,4.13,0,0,1,532.27,199.75Z" transform="translate(-264.42 -123.03)" style="fill:#f2f2f2"/><path d="M541.51,192.41h1.73v2.24h-1.73v-2.24Zm0,3.35h1.73v8h-1.73v-8Z" transform="translate(-264.42 -123.03)" style="fill:#f2f2f2"/><path d="M545,192.07h1.71v11.68H545V192.07Z" transform="translate(-264.42 -123.03)" style="fill:#f2f2f2"/><path d="M548.06,199.79a4.12,4.12,0,0,1,4.16-4.19,4,4,0,0,1,4.11,4.08v0.67h-6.63a2.45,2.45,0,0,0,2.58,2,2.51,2.51,0,0,0,2.34-1.44l1.41,0.78A4.26,4.26,0,0,1,548.06,199.79Zm1.73-.9h4.8a2.23,2.23,0,0,0-2.37-1.79A2.49,2.49,0,0,0,549.79,198.89Z" transform="translate(-264.42 -123.03)" style="fill:#f2f2f2"/><path d="M560,203.34l-3.31-7.59h1.84l2.34,5.55,2.21-5.55h1.81l-4.83,11.7H558.3Z" transform="translate(-264.42 -123.03)" style="fill:#f2f2f2"/><path d="M517.21,211.27h4c2.37,0,3.84,1.18,3.84,3.19a2.59,2.59,0,0,1-1.38,2.39,2.78,2.78,0,0,1,1.75,2.74c0,2.16-1.55,3.38-3.94,3.38h-4.23V211.27Zm1.74,1.58v3.28h2.27c1.41,0,2-.7,2-1.68s-0.72-1.6-2.1-1.6H519Zm0,4.9v3.6h2.48c1.38,0,2.19-.72,2.19-1.81s-0.66-1.79-2.27-1.79H519Z" transform="translate(-264.42 -123.03)" style="fill:#f2f2f2"/><path d="M526.75,211.61h1.73v2.24h-1.73v-2.24Zm0,3.35h1.73v8h-1.73v-8Z" transform="translate(-264.42 -123.03)" style="fill:#f2f2f2"/><path d="M529.77,215h1.36v-1.89l1.73-.94V215h1.7v1.54h-1.7v3.19c0,1.44.22,1.66,1.7,1.66V223H534.3c-2.43,0-3.17-.77-3.17-3.27v-3.2h-1.36V215Z" transform="translate(-264.42 -123.03)" style="fill:#f2f2f2"/><line x1="122.58" y1="92.3" x2="198.95" y2="92.61" style="fill:none;stroke:#48f3a5;stroke-miterlimit:10"/><path d="M469.41,215.67a30.22,30.22,0,0,0-8.57,4.72l1.74-4.75-1.7-4.76A30.2,30.2,0,0,0,469.41,215.67Z" transform="translate(-264.42 -123.03)" style="fill:#48f3a5"/><line x1="134.46" y1="165.94" x2="195.2" y2="165.39" style="fill:none;stroke:#48f3a5;stroke-miterlimit:10"/><path d="M465.66,288.37a30.22,30.22,0,0,0-8.5,4.83l1.68-4.77-1.76-4.74A30.2,30.2,0,0,0,465.66,288.37Z" transform="translate(-264.42 -123.03)" style="fill:#48f3a5"/><path d="M414.61,189.11v4.65h-0.47v-9.49h0.47V186a3.11,3.11,0,0,1,2.86-1.81,3.38,3.38,0,0,1,0,6.76A3,3,0,0,1,414.61,189.11Zm5.73-1.59a2.9,2.9,0,1,0-2.89,2.94A2.9,2.9,0,0,0,420.34,187.53Z" transform="translate(-264.42 -123.03)" style="fill:#fff"/><path d="M422.43,187.93v-3.65h0.48v3.67a2.33,2.33,0,0,0,2.5,2.52,2.5,2.5,0,0,0,2.56-2.52v-3.67h0.47v6.5H428v-1.53A2.92,2.92,0,0,1,422.43,187.93Z" transform="translate(-264.42 -123.03)" style="fill:#fff"/><path d="M429.83,189.71l0.38-.3a2.6,2.6,0,0,0,2.13,1.07c1.26,0,1.9-.68,1.9-1.48s-1-1.13-2-1.39-2.12-.61-2.12-1.74a1.91,1.91,0,0,1,2.17-1.72,2.83,2.83,0,0,1,2.18.9l-0.35.29a2.33,2.33,0,0,0-1.83-.77,1.45,1.45,0,0,0-1.7,1.29c0,0.87.92,1.09,1.9,1.35s2.18,0.6,2.18,1.79c0,0.95-.77,1.91-2.38,1.91A3.11,3.11,0,0,1,429.83,189.71Z" transform="translate(-264.42 -123.03)" style="fill:#fff"/><path d="M436.37,181.29h0.46v4.48a2.8,2.8,0,0,1,2.61-1.62,2.76,2.76,0,0,1,2.92,3v3.65H441.9v-3.67a2.35,2.35,0,0,0-2.5-2.54,2.51,2.51,0,0,0-2.56,2.54v3.67h-0.47v-9.49Z" transform="translate(-264.42 -123.03)" style="fill:#fff"/><path d="M401.69,203.13a3.39,3.39,0,0,1,6.49-1.37l-0.46.19a2.82,2.82,0,0,0-2.64-1.77,2.94,2.94,0,0,0,0,5.88,2.84,2.84,0,0,0,2.65-1.79l0.46,0.19A3.4,3.4,0,0,1,401.69,203.13Z" transform="translate(-264.42 -123.03)" style="fill:#fff"/><path d="M409.83,196.89h0.46v4.48a2.8,2.8,0,0,1,2.61-1.62,2.76,2.76,0,0,1,2.92,3v3.65h-0.47v-3.67a2.35,2.35,0,0,0-2.5-2.54,2.51,2.51,0,0,0-2.56,2.54v3.67h-0.47v-9.49Z" transform="translate(-264.42 -123.03)" style="fill:#fff"/><path d="M417.42,203.13a3.35,3.35,0,0,1,3.37-3.38,3.08,3.08,0,0,1,2.87,1.86v-1.73h0.47v6.5h-0.47v-1.73a3.08,3.08,0,0,1-2.87,1.86A3.35,3.35,0,0,1,417.42,203.13Zm6.28,0a2.89,2.89,0,1,0-2.9,2.94A2.89,2.89,0,0,0,423.7,203.13Z" transform="translate(-264.42 -123.03)" style="fill:#fff"/><path d="M426.15,199.88h0.47v1.5a2.8,2.8,0,0,1,2.61-1.62,2.76,2.76,0,0,1,2.93,3v3.65h-0.48v-3.67a2.33,2.33,0,0,0-2.5-2.52,2.5,2.5,0,0,0-2.55,2.52v3.67h-0.48v-6.5Z" transform="translate(-264.42 -123.03)" style="fill:#fff"/><path d="M433.75,203.13a3.35,3.35,0,0,1,3.37-3.38,3.08,3.08,0,0,1,2.87,1.86v-1.73h0.47v6.37a3.05,3.05,0,0,1-3.22,3.26,3,3,0,0,1-3-1.78l0.46-.17a2.49,2.49,0,0,0,2.56,1.52,2.62,2.62,0,0,0,2.76-2.83v-1.6a3.08,3.08,0,0,1-2.87,1.86A3.35,3.35,0,0,1,433.75,203.13Zm6.28,0a2.89,2.89,0,1,0-2.9,2.94A2.89,2.89,0,0,0,440,203.13Z" transform="translate(-264.42 -123.03)" style="fill:#fff"/><path d="M442.1,203.14a3.34,3.34,0,0,1,3.38-3.39,3.23,3.23,0,0,1,3.32,3.33v0.22h-6.23a2.8,2.8,0,0,0,3,2.78,2.75,2.75,0,0,0,2.72-1.91l0.42,0.19a3.14,3.14,0,0,1-3.13,2.15A3.23,3.23,0,0,1,442.1,203.14Zm0.48-.29h5.73a2.74,2.74,0,0,0-2.83-2.68A2.89,2.89,0,0,0,442.58,202.85Z" transform="translate(-264.42 -123.03)" style="fill:#fff"/><path d="M449.91,205.31l0.38-.3a2.6,2.6,0,0,0,2.13,1.07c1.26,0,1.9-.68,1.9-1.48s-1-1.13-2-1.39-2.12-.61-2.12-1.74a1.91,1.91,0,0,1,2.17-1.72,2.83,2.83,0,0,1,2.18.9l-0.35.29a2.33,2.33,0,0,0-1.83-.77,1.45,1.45,0,0,0-1.7,1.29c0,0.87.92,1.09,1.9,1.35s2.18,0.6,2.18,1.79c0,0.95-.77,1.91-2.38,1.91A3.11,3.11,0,0,1,449.91,205.31Z" transform="translate(-264.42 -123.03)" style="fill:#fff"/><path d="M425.23,263.87v4.65h-0.47V259h0.47v1.68a3.11,3.11,0,0,1,2.86-1.81,3.38,3.38,0,0,1,0,6.76A3,3,0,0,1,425.23,263.87Zm5.73-1.59a2.9,2.9,0,1,0-2.89,2.94A2.9,2.9,0,0,0,431,262.28Z" transform="translate(-264.42 -123.03)" style="fill:#fff"/><path d="M433.06,262.69V259h0.48v3.67a2.33,2.33,0,0,0,2.5,2.52,2.5,2.5,0,0,0,2.56-2.52V259h0.47v6.5h-0.46V264A2.92,2.92,0,0,1,433.06,262.69Z" transform="translate(-264.42 -123.03)" style="fill:#fff"/><path d="M441,256h0.47v9.49H441V256Z" transform="translate(-264.42 -123.03)" style="fill:#fff"/><path d="M443.6,256h0.47v9.49H443.6V256Z" transform="translate(-264.42 -123.03)" style="fill:#fff"/><path d="M414.55,271.64h0.52l3.38,8.81,3.39-8.81h0.52l-3.67,9.49h-0.49Z" transform="translate(-264.42 -123.03)" style="fill:#fff"/><path d="M423.91,271.64h2.65a4.75,4.75,0,1,1,0,9.49h-2.67v-9.49Zm0.48,0.46v8.58h2.16a4.29,4.29,0,1,0,0-8.58H424.4Z" transform="translate(-264.42 -123.03)" style="fill:#fff"/><path d="M433,276.39a4.88,4.88,0,1,1,4.88,4.88A4.88,4.88,0,0,1,433,276.39Zm9.26,0a4.37,4.37,0,1,0-4.38,4.42A4.39,4.39,0,0,0,442.28,276.39Z" transform="translate(-264.42 -123.03)" style="fill:#fff"/><path d="M444.53,271.64H445l4.09,5.68,4.25-5.68h0.47v9.49h-0.49v-8.68l-4.23,5.68L445,272.49v8.65h-0.48v-9.49Z" transform="translate(-264.42 -123.03)" style="fill:#fff"/><path d="M282.67,262.87h3.23c3.79,0,6.13,2.53,6.13,5.84a5.8,5.8,0,0,1-6.07,5.84h-3.3V262.87Zm1.74,1.6v8.47h1.38a4.19,4.19,0,0,0,4.48-4.23c0-2.45-1.62-4.24-4.55-4.24h-1.31Z" transform="translate(-264.42 -123.03)" style="fill:#f2f2f2"/><path d="M293.22,270.59a4.12,4.12,0,0,1,4.16-4.19,4,4,0,0,1,4.11,4.08v0.67h-6.63a2.45,2.45,0,0,0,2.58,2,2.51,2.51,0,0,0,2.34-1.44l1.41,0.78A4.26,4.26,0,0,1,293.22,270.59Zm1.73-.9h4.8a2.23,2.23,0,0,0-2.37-1.79A2.49,2.49,0,0,0,294.95,269.69Z" transform="translate(-264.42 -123.03)" style="fill:#f2f2f2"/><path d="M302.87,266.55h1.71v1.23a2.32,2.32,0,0,1,2.21-1.23h0.94v1.63h-1.2c-1.39,0-1.94.74-1.94,2.4v4h-1.73v-8Z" transform="translate(-264.42 -123.03)" style="fill:#f2f2f2"/><path d="M309.11,263.21h1.73v2.24h-1.73v-2.24Zm0,3.35h1.73v8h-1.73v-8Z" transform="translate(-264.42 -123.03)" style="fill:#f2f2f2"/><path d="M312,266.55h1.81l2.13,5.78,2.1-5.78h1.78l-3,8h-1.71Z" transform="translate(-264.42 -123.03)" style="fill:#f2f2f2"/><path d="M320.23,270.55a4,4,0,0,1,4-4.16,3.45,3.45,0,0,1,2.66,1.2v-1h1.71v8h-1.71v-1.1a3.41,3.41,0,0,1-2.67,1.26A4,4,0,0,1,320.23,270.55Zm6.75,0a2.53,2.53,0,1,0-2.53,2.61A2.53,2.53,0,0,0,327,270.54Z" transform="translate(-264.42 -123.03)" style="fill:#f2f2f2"/><path d="M329.89,266.55h1.36v-1.89l1.73-.94v2.83h1.7v1.54H333v3.19c0,1.44.22,1.66,1.7,1.66v1.62h-0.26c-2.43,0-3.17-.77-3.17-3.27v-3.2h-1.36v-1.54Z" transform="translate(-264.42 -123.03)" style="fill:#f2f2f2"/><path d="M336.1,263.21h1.73v2.24H336.1v-2.24Zm0,3.35h1.73v8H336.1v-8Z" transform="translate(-264.42 -123.03)" style="fill:#f2f2f2"/><path d="M339.19,270.55a4.15,4.15,0,1,1,4.15,4.16A4.12,4.12,0,0,1,339.19,270.55Zm6.61,0a2.46,2.46,0,1,0-2.46,2.56A2.51,2.51,0,0,0,345.8,270.55Z" transform="translate(-264.42 -123.03)" style="fill:#f2f2f2"/><path d="M348.85,266.55h1.7v1a3,3,0,0,1,2.46-1.2c2,0,3.25,1.31,3.25,3.49v4.67h-1.73V270a1.86,1.86,0,0,0-1.94-2.15,2.06,2.06,0,0,0-2,2.27v4.4h-1.71v-8Z" transform="translate(-264.42 -123.03)" style="fill:#f2f2f2"/><path d="M361.86,262.87h1.71v11.68h-1.71V262.87Z" transform="translate(-264.42 -123.03)" style="fill:#f2f2f2"/><path d="M364.94,270.55a4.15,4.15,0,1,1,4.15,4.16A4.12,4.12,0,0,1,364.94,270.55Zm6.61,0a2.46,2.46,0,1,0-2.46,2.56A2.51,2.51,0,0,0,371.56,270.55Z" transform="translate(-264.42 -123.03)" style="fill:#f2f2f2"/><path d="M374.42,270.55a4,4,0,0,1,4-4.16,3.41,3.41,0,0,1,2.66,1.25v-1.09h1.71v7.81a3.81,3.81,0,0,1-4,4.08,4.14,4.14,0,0,1-4-2.26l1.58-.75a2.41,2.41,0,0,0,2.38,1.44,2.28,2.28,0,0,0,2.34-2.45v-1a3.41,3.41,0,0,1-2.69,1.3A4,4,0,0,1,374.42,270.55Zm6.75,0a2.53,2.53,0,1,0-2.53,2.61A2.53,2.53,0,0,0,381.17,270.54Z" transform="translate(-264.42 -123.03)" style="fill:#f2f2f2"/><path d="M384.38,263.21h1.73v2.24h-1.73v-2.24Zm0,3.35h1.73v8h-1.73v-8Z" transform="translate(-264.42 -123.03)" style="fill:#f2f2f2"/><path d="M387.47,270.55a4.12,4.12,0,0,1,4.18-4.16,4,4,0,0,1,3.79,2.45l-1.54.66a2.39,2.39,0,0,0-2.26-1.5,2.49,2.49,0,0,0-2.5,2.56,2.52,2.52,0,0,0,2.53,2.56,2.41,2.41,0,0,0,2.26-1.57l1.55,0.66a4,4,0,0,1-3.84,2.51A4.13,4.13,0,0,1,387.47,270.55Z" transform="translate(-264.42 -123.03)" style="fill:#f2f2f2"/><path d="M480.3,281.2h3.23c3.79,0,6.13,2.53,6.13,5.84a5.8,5.8,0,0,1-6.07,5.84h-3.3V281.2Zm1.74,1.6v8.47h1.38a4.19,4.19,0,0,0,4.48-4.22c0-2.45-1.62-4.24-4.55-4.24H482Z" transform="translate(-264.42 -123.03)" style="fill:#f2f2f2"/><path d="M490.85,288.92a4.12,4.12,0,0,1,4.16-4.19,4,4,0,0,1,4.11,4.08v0.67H492.5a2.45,2.45,0,0,0,2.58,2,2.51,2.51,0,0,0,2.34-1.44l1.41,0.78A4.26,4.26,0,0,1,490.85,288.92Zm1.73-.9h4.8a2.23,2.23,0,0,0-2.37-1.79A2.49,2.49,0,0,0,492.58,288Z" transform="translate(-264.42 -123.03)" style="fill:#f2f2f2"/><path d="M500.49,284.88h1.71v1.23a2.32,2.32,0,0,1,2.21-1.23h0.94v1.63h-1.2c-1.39,0-1.94.74-1.94,2.4v4h-1.73v-8Z" transform="translate(-264.42 -123.03)" style="fill:#f2f2f2"/><path d="M506.73,281.54h1.73v2.24h-1.73v-2.24Zm0,3.34h1.73v8h-1.73v-8Z" transform="translate(-264.42 -123.03)" style="fill:#f2f2f2"/><path d="M509.65,284.88h1.81l2.13,5.78,2.1-5.78h1.78l-3,8h-1.71Z" transform="translate(-264.42 -123.03)" style="fill:#f2f2f2"/><path d="M517.85,288.92a4.12,4.12,0,0,1,4.16-4.19,4,4,0,0,1,4.11,4.08v0.67H519.5a2.45,2.45,0,0,0,2.58,2,2.51,2.51,0,0,0,2.34-1.44l1.41,0.78A4.26,4.26,0,0,1,517.85,288.92Zm1.73-.9h4.8a2.23,2.23,0,0,0-2.37-1.79A2.49,2.49,0,0,0,519.58,288Z" transform="translate(-264.42 -123.03)" style="fill:#f2f2f2"/><path d="M527.23,288.89a4,4,0,0,1,4-4.16,3.44,3.44,0,0,1,2.66,1.2V281.2h1.7v11.68h-1.7v-1.1a3.4,3.4,0,0,1-2.67,1.26A4,4,0,0,1,527.23,288.89Zm6.75,0a2.53,2.53,0,1,0-2.53,2.61A2.53,2.53,0,0,0,534,288.87Z" transform="translate(-264.42 -123.03)" style="fill:#f2f2f2"/><path d="M540.57,290.92l1.54-1.2a3.2,3.2,0,0,0,2.8,1.7,1.92,1.92,0,0,0,2.11-1.87c0-1.2-1.28-1.58-2.62-2-1.58-.51-3.3-1.15-3.3-3.3,0-1.78,1.58-3.18,3.75-3.18a4.61,4.61,0,0,1,3.78,1.73l-1.42,1.06a2.64,2.64,0,0,0-2.35-1.25,1.73,1.73,0,0,0-2,1.62c0,1.12,1.23,1.49,2.58,1.94,1.6,0.54,3.34,1.23,3.34,3.41a3.63,3.63,0,0,1-3.89,3.51A5.2,5.2,0,0,1,540.57,290.92Z" transform="translate(-264.42 -123.03)" style="fill:#f2f2f2"/><path d="M549.41,284.88h1.36V283l1.73-.94v2.83h1.7v1.54h-1.7v3.19c0,1.44.22,1.66,1.7,1.66v1.62h-0.26c-2.43,0-3.17-.77-3.17-3.27v-3.2h-1.36v-1.54Z" transform="translate(-264.42 -123.03)" style="fill:#f2f2f2"/><path d="M555,288.89a4,4,0,0,1,4-4.16,3.44,3.44,0,0,1,2.66,1.2v-1h1.71v8h-1.71v-1.1A3.4,3.4,0,0,1,559,293,4,4,0,0,1,555,288.89Zm6.75,0a2.53,2.53,0,1,0-2.53,2.61A2.53,2.53,0,0,0,561.78,288.87Z" transform="translate(-264.42 -123.03)" style="fill:#f2f2f2"/><path d="M564.68,284.88H566V283l1.73-.94v2.83h1.7v1.54h-1.7v3.19c0,1.44.22,1.66,1.7,1.66v1.62h-0.26c-2.43,0-3.17-.77-3.17-3.27v-3.2h-1.36v-1.54Z" transform="translate(-264.42 -123.03)" style="fill:#f2f2f2"/><path d="M570.3,288.92a4.12,4.12,0,0,1,4.16-4.19,4,4,0,0,1,4.11,4.08v0.67H572a2.45,2.45,0,0,0,2.58,2,2.51,2.51,0,0,0,2.34-1.44l1.41,0.78A4.26,4.26,0,0,1,570.3,288.92ZM572,288h4.8a2.23,2.23,0,0,0-2.37-1.79A2.49,2.49,0,0,0,572,288Z" transform="translate(-264.42 -123.03)" style="fill:#f2f2f2"/><line x1="261.78" y1="146.72" x2="261.35" y2="122.34" style="fill:none;stroke:#48f3a5;stroke-miterlimit:10"/><path d="M525.67,239.33a30.22,30.22,0,0,0,4.91,8.46l-4.79-1.64-4.72,1.8A30.2,30.2,0,0,0,525.67,239.33Z" transform="translate(-264.42 -123.03)" style="fill:#48f3a5"/><path d="M540.9,245.69a4.86,4.86,0,0,1,9-2.54l-0.4.23a4.38,4.38,0,1,0,.13,4.46l0.43,0.22A4.91,4.91,0,0,1,540.9,245.69Z" transform="translate(-264.42 -123.03)" style="fill:#fff"/><path d="M551.42,247.19a3.38,3.38,0,1,1,3.38,3.38A3.37,3.37,0,0,1,551.42,247.19Zm6.27,0a2.89,2.89,0,1,0-2.89,2.94A2.9,2.9,0,0,0,557.69,247.19Z" transform="translate(-264.42 -123.03)" style="fill:#fff"/><path d="M559.81,243.94h0.47v1.43a2.61,2.61,0,0,1,2.48-1.56,2.51,2.51,0,0,1,2.6,1.78,2.77,2.77,0,0,1,2.69-1.78,2.73,2.73,0,0,1,2.9,2.9v3.73h-0.47v-3.76a2.31,2.31,0,0,0-2.44-2.43,2.34,2.34,0,0,0-2.47,2.39v3.8H565.1v-3.87a2.18,2.18,0,0,0-2.37-2.31,2.37,2.37,0,0,0-2.44,2.51v3.68h-0.48v-6.5Z" transform="translate(-264.42 -123.03)" style="fill:#fff"/><path d="M573.31,248.78v4.65h-0.47v-9.49h0.47v1.68a3.11,3.11,0,0,1,2.86-1.81,3.38,3.38,0,0,1,0,6.76A3,3,0,0,1,573.31,248.78Zm5.73-1.59a2.9,2.9,0,1,0-2.89,2.94A2.9,2.9,0,0,0,579,247.19Z" transform="translate(-264.42 -123.03)" style="fill:#fff"/><path d="M580.93,247.19a3.35,3.35,0,0,1,3.37-3.38,3.09,3.09,0,0,1,2.87,1.86v-1.73h0.47v6.5h-0.47v-1.73a3.08,3.08,0,0,1-2.87,1.86A3.35,3.35,0,0,1,580.93,247.19Zm6.28,0a2.89,2.89,0,1,0-2.9,2.94A2.89,2.89,0,0,0,587.21,247.19Z" transform="translate(-264.42 -123.03)" style="fill:#fff"/><path d="M589.65,243.94h0.47v1.68a2.51,2.51,0,0,1,2.44-1.68H593v0.45h-0.42a2.38,2.38,0,0,0-2.43,2.64v3.41h-0.48v-6.5Z" transform="translate(-264.42 -123.03)" style="fill:#fff"/><path d="M593.59,247.2a3.34,3.34,0,0,1,3.38-3.39,3.23,3.23,0,0,1,3.32,3.33v0.22h-6.23a2.8,2.8,0,0,0,3,2.78,2.75,2.75,0,0,0,2.72-1.91l0.42,0.19a3.14,3.14,0,0,1-3.13,2.15A3.23,3.23,0,0,1,593.59,247.2Zm0.48-.29h5.73a2.74,2.74,0,0,0-2.83-2.68A2.89,2.89,0,0,0,594.07,246.92Z" transform="translate(-264.42 -123.03)" style="fill:#fff"/><path d="M604.86,243.94h0.51l1.81,5.72,2.31-5.72h0.43l2.21,5.76,1.86-5.76h0.51l-2.15,6.5h-0.43l-2.24-5.81-2.34,5.81h-0.42Z" transform="translate(-264.42 -123.03)" style="fill:#fff"/><path d="M616,240.95h0.48v1.92H616v-1.92Zm0,3h0.48v6.5H616v-6.5Z" transform="translate(-264.42 -123.03)" style="fill:#fff"/><path d="M617.82,243.94H619v-1.5l0.47-.34v1.83h1.78v0.43h-1.78v3.81c0,1.56.35,1.82,1.78,1.82v0.44h-0.07c-1.73,0-2.18-.44-2.18-2.25v-3.82h-1.14v-0.43Z" transform="translate(-264.42 -123.03)" style="fill:#fff"/><path d="M622.8,240.95h0.46v4.48a2.8,2.8,0,0,1,2.61-1.62,2.76,2.76,0,0,1,2.92,3v3.65h-0.47v-3.67a2.35,2.35,0,0,0-2.5-2.54,2.51,2.51,0,0,0-2.56,2.54v3.67H622.8v-9.49Z" transform="translate(-264.42 -123.03)" style="fill:#fff"/><path d="M561.49,262.79a3.39,3.39,0,0,1,6.49-1.37l-0.46.19a2.82,2.82,0,0,0-2.64-1.77,2.94,2.94,0,0,0,0,5.88,2.84,2.84,0,0,0,2.65-1.79l0.46,0.19A3.4,3.4,0,0,1,561.49,262.79Z" transform="translate(-264.42 -123.03)" style="fill:#fff"/><path d="M569.29,262.79a3.35,3.35,0,0,1,3.37-3.38,3.09,3.09,0,0,1,2.87,1.86v-1.73H576V266h-0.47v-1.73a3.08,3.08,0,0,1-2.87,1.86A3.35,3.35,0,0,1,569.29,262.79Zm6.28,0a2.89,2.89,0,1,0-2.9,2.94A2.89,2.89,0,0,0,575.57,262.79Z" transform="translate(-264.42 -123.03)" style="fill:#fff"/><path d="M577.62,262.79a3.39,3.39,0,0,1,6.49-1.37l-0.46.19a2.82,2.82,0,0,0-2.64-1.77,2.94,2.94,0,0,0,0,5.88,2.84,2.84,0,0,0,2.65-1.79l0.46,0.19A3.4,3.4,0,0,1,577.62,262.79Z" transform="translate(-264.42 -123.03)" style="fill:#fff"/><path d="M585.76,256.55h0.46V261a2.8,2.8,0,0,1,2.61-1.62,2.76,2.76,0,0,1,2.92,3V266h-0.47v-3.67a2.35,2.35,0,0,0-2.5-2.54,2.51,2.51,0,0,0-2.56,2.54V266h-0.47v-9.49Z" transform="translate(-264.42 -123.03)" style="fill:#fff"/><path d="M593.35,262.8a3.34,3.34,0,0,1,3.38-3.39,3.23,3.23,0,0,1,3.32,3.33V263h-6.23a2.8,2.8,0,0,0,3,2.78,2.75,2.75,0,0,0,2.72-1.91L599.9,264a3.14,3.14,0,0,1-3.13,2.15A3.23,3.23,0,0,1,593.35,262.8Zm0.48-.29h5.73a2.74,2.74,0,0,0-2.83-2.68A2.89,2.89,0,0,0,593.83,262.52Z" transform="translate(-264.42 -123.03)" style="fill:#fff"/><path d="M601.4,262.79a3.35,3.35,0,0,1,3.37-3.38,3.09,3.09,0,0,1,2.86,1.83v-4.69h0.47V266h-0.46v-1.73a3.08,3.08,0,0,1-2.87,1.86A3.35,3.35,0,0,1,601.4,262.79Zm6.28,0a2.89,2.89,0,1,0-2.9,2.94A2.89,2.89,0,0,0,607.68,262.79Z" transform="translate(-264.42 -123.03)" style="fill:#fff"/><path d="M589.71,188.5c19.31-4.8,30.28-25,24.47-42.74-6-18.41-27.75-26.69-44.61-19.85-12.25,5-20.55,17.33-21.07,31.3" transform="translate(-264.42 -123.03)" style="fill:none;stroke:#48f3a5;stroke-miterlimit:10"/><path d="M548.75,163.24a30.22,30.22,0,0,0-5-8.39l4.81,1.56,4.7-1.88A30.2,30.2,0,0,0,548.75,163.24Z" transform="translate(-264.42 -123.03)" style="fill:#48f3a5"/><path d="M663.79,184.43H667c3.79,0,6.13,2.53,6.13,5.84a5.8,5.8,0,0,1-6.07,5.84h-3.3V184.43Zm1.74,1.6v8.47h1.38a4.19,4.19,0,0,0,4.48-4.23c0-2.45-1.62-4.24-4.55-4.24h-1.31Z" transform="translate(-264.42 -123.03)" style="fill:#f2f2f2"/><path d="M674.42,190.27a6,6,0,1,1,6,6A6,6,0,0,1,674.42,190.27Zm10.24,0a4.25,4.25,0,1,0-4.26,4.31A4.27,4.27,0,0,0,684.67,190.27Z" transform="translate(-264.42 -123.03)" style="fill:#f2f2f2"/><path d="M687.86,184.43h1.73l4,5.49,4.1-5.49h1.65v11.68h-1.73v-8.9l-4,5.46-3.92-5.33v8.77h-1.75V184.43Z" transform="translate(-264.42 -123.03)" style="fill:#f2f2f2"/><line x1="325.29" y1="65.47" x2="380.21" y2="65.47" style="fill:none;stroke:#48f3a5;stroke-miterlimit:10"/><path d="M650.67,188.5a30.22,30.22,0,0,0-8.55,4.76l1.72-4.76-1.72-4.75A30.19,30.19,0,0,0,650.67,188.5Z" transform="translate(-264.42 -123.03)" style="fill:#48f3a5"/><path d="M638.71,155l0.38-.3a2.6,2.6,0,0,0,2.13,1.07c1.26,0,1.9-.68,1.9-1.48s-1-1.13-2-1.39-2.12-.61-2.12-1.74a1.91,1.91,0,0,1,2.17-1.72,2.83,2.83,0,0,1,2.18.9l-0.35.29a2.33,2.33,0,0,0-1.83-.77,1.45,1.45,0,0,0-1.7,1.29c0,0.87.92,1.09,1.9,1.35s2.18,0.6,2.18,1.79c0,0.95-.77,1.91-2.38,1.91A3.11,3.11,0,0,1,638.71,155Z" transform="translate(-264.42 -123.03)" style="fill:#fff"/><path d="M645.21,146.53h0.48v1.92h-0.48v-1.92Zm0,3h0.48V156h-0.48v-6.5Z" transform="translate(-264.42 -123.03)" style="fill:#fff"/><path d="M647.31,152.77a3.35,3.35,0,0,1,3.37-3.38,3.09,3.09,0,0,1,2.86,1.83v-4.69H654V156h-0.46v-1.73a3.08,3.08,0,0,1-2.87,1.86A3.35,3.35,0,0,1,647.31,152.77Zm6.28,0a2.89,2.89,0,1,0-2.9,2.94A2.89,2.89,0,0,0,653.59,152.77Z" transform="translate(-264.42 -123.03)" style="fill:#fff"/><path d="M655.67,152.78a3.34,3.34,0,0,1,3.38-3.39,3.23,3.23,0,0,1,3.32,3.33v0.22h-6.23a2.8,2.8,0,0,0,3,2.78,2.75,2.75,0,0,0,2.72-1.91l0.42,0.19a3.14,3.14,0,0,1-3.13,2.15A3.23,3.23,0,0,1,655.67,152.78Zm0.48-.29h5.73a2.74,2.74,0,0,0-2.83-2.68A2.89,2.89,0,0,0,656.15,152.49Z" transform="translate(-264.42 -123.03)" style="fill:#fff"/><path d="M630.29,168.38a3.34,3.34,0,0,1,3.38-3.39,3.23,3.23,0,0,1,3.32,3.33v0.22h-6.23a2.8,2.8,0,0,0,3,2.78,2.75,2.75,0,0,0,2.72-1.91l0.42,0.19a3.14,3.14,0,0,1-3.13,2.15A3.23,3.23,0,0,1,630.29,168.38Zm0.48-.29h5.73a2.74,2.74,0,0,0-2.83-2.68A2.89,2.89,0,0,0,630.77,168.09Z" transform="translate(-264.42 -123.03)" style="fill:#fff"/><path d="M637.86,165.12H639v-0.74c0-1.81.48-2.25,2.21-2.25h0.05v0.46c-1.47,0-1.78.25-1.78,1.81v0.73h1.78v0.43h-1.78v6.07H639v-6.07h-1.11v-0.43Z" transform="translate(-264.42 -123.03)" style="fill:#fff"/><path d="M642.22,165.12h1.1v-0.74c0-1.81.48-2.25,2.21-2.25h0.05v0.46c-1.47,0-1.78.25-1.78,1.81v0.73h1.78v0.43h-1.78v6.07h-0.48v-6.07h-1.1v-0.43Z" transform="translate(-264.42 -123.03)" style="fill:#fff"/><path d="M646.23,168.38a3.34,3.34,0,0,1,3.38-3.39,3.23,3.23,0,0,1,3.32,3.33v0.22H646.7a2.8,2.8,0,0,0,3,2.78,2.75,2.75,0,0,0,2.72-1.91l0.42,0.19a3.14,3.14,0,0,1-3.13,2.15A3.23,3.23,0,0,1,646.23,168.38Zm0.48-.29h5.73a2.74,2.74,0,0,0-2.83-2.68A2.89,2.89,0,0,0,646.71,168.09Z" transform="translate(-264.42 -123.03)" style="fill:#fff"/><path d="M654.27,168.37a3.39,3.39,0,0,1,6.49-1.37l-0.46.19a2.82,2.82,0,0,0-2.64-1.77,2.94,2.94,0,0,0,0,5.88,2.84,2.84,0,0,0,2.65-1.79l0.46,0.19A3.4,3.4,0,0,1,654.27,168.37Z" transform="translate(-264.42 -123.03)" style="fill:#fff"/><path d="M661.72,165.12h1.14v-1.49l0.47-.34v1.83h1.78v0.43h-1.78v3.81c0,1.56.35,1.82,1.78,1.82v0.44h-0.06c-1.73,0-2.18-.44-2.18-2.25v-3.82h-1.14v-0.43Z" transform="translate(-264.42 -123.03)" style="fill:#fff"/><path d="M666.17,170.55l0.38-.3a2.6,2.6,0,0,0,2.13,1.07c1.26,0,1.9-.68,1.9-1.48s-1-1.13-2-1.39-2.12-.61-2.12-1.74a1.91,1.91,0,0,1,2.17-1.72,2.83,2.83,0,0,1,2.18.9l-0.35.29a2.33,2.33,0,0,0-1.83-.77,1.45,1.45,0,0,0-1.7,1.29c0,0.87.92,1.09,1.9,1.35s2.18,0.6,2.18,1.79c0,0.95-.77,1.91-2.38,1.91A3.11,3.11,0,0,1,666.17,170.55Z" transform="translate(-264.42 -123.03)" style="fill:#fff"/><path d="M267.72,131.07h-3.3v-2.26h9v2.26h-3.3v10.15h-2.36V131.07Z" transform="translate(-264.42 -123.03)" style="fill:#ec607f"/><path d="M274.4,128.81h2.31v4.84a3,3,0,0,1,2.35-1.1c2,0,3.21,1.29,3.21,3.48v5.18h-2.36v-4.86c0-1.16-.53-1.82-1.56-1.82-0.88,0-1.61.61-1.61,2v4.64H274.4V128.81Z" transform="translate(-264.42 -123.03)" style="fill:#ec607f"/><path d="M283.46,129.54h2.33v2.33h-2.33v-2.33Zm0,3.18h2.33v8.5h-2.33v-8.5Z" transform="translate(-264.42 -123.03)" style="fill:#ec607f"/><path d="M286.47,139.1l2.23-.87a1.78,1.78,0,0,0,1.78,1.16,1,1,0,0,0,1.17-.76c0-.46-0.83-0.6-1.82-0.78-1.53-.27-3.06-0.8-3.06-2.62,0-1.43,1.38-2.7,3.48-2.67a3.66,3.66,0,0,1,3.6,2l-2.06.87a1.59,1.59,0,0,0-1.56-.93c-0.76,0-1.1.32-1.1,0.7s0.49,0.51,1.77.76c1.43,0.29,3.08.8,3.08,2.63,0,1.24-1.16,2.87-3.6,2.84C288.33,141.39,287.09,140.59,286.47,139.1Z" transform="translate(-264.42 -123.03)" style="fill:#ec607f"/><path d="M299.09,129.54h2.33v2.33h-2.33v-2.33Zm0,3.18h2.33v8.5h-2.33v-8.5Z" transform="translate(-264.42 -123.03)" style="fill:#ec607f"/><path d="M302.1,139.1l2.23-.87a1.78,1.78,0,0,0,1.79,1.16,1,1,0,0,0,1.17-.76c0-.46-0.83-0.6-1.82-0.78-1.53-.27-3.06-0.8-3.06-2.62,0-1.43,1.38-2.7,3.48-2.67a3.66,3.66,0,0,1,3.6,2l-2.06.87a1.59,1.59,0,0,0-1.56-.93c-0.76,0-1.1.32-1.1,0.7s0.49,0.51,1.77.76c1.43,0.29,3.08.8,3.08,2.63,0,1.24-1.16,2.87-3.6,2.84C303.95,141.39,302.71,140.59,302.1,139.1Z" transform="translate(-264.42 -123.03)" style="fill:#ec607f"/><path d="M314.39,132.72h2.4l2,5.52,1.94-5.52h2.36l-3.13,8.5H317.6Z" transform="translate(-264.42 -123.03)" style="fill:#ec607f"/><path d="M323,137a4.15,4.15,0,0,1,4.13-4.42,3.41,3.41,0,0,1,2.53,1v-0.83h2.33v8.5h-2.33v-1a3.31,3.31,0,0,1-2.57,1.12A4.2,4.2,0,0,1,323,137Zm6.73,0a2.19,2.19,0,0,0-2.18-2.28A2.29,2.29,0,1,0,329.69,137Z" transform="translate(-264.42 -123.03)" style="fill:#ec607f"/><path d="M332.88,137a4.15,4.15,0,0,1,4.13-4.42,3.33,3.33,0,0,1,2.53,1.09v-0.92h2.33V141a4.1,4.1,0,0,1-4.39,4.33,4.85,4.85,0,0,1-4.42-2.45l2.06-1.16a2.5,2.5,0,0,0,2.36,1.44,2,2,0,0,0,2.06-2.09v-0.8a3.31,3.31,0,0,1-2.57,1.12A4.2,4.2,0,0,1,332.88,137Zm6.73,0a2.19,2.19,0,0,0-2.18-2.28A2.29,2.29,0,1,0,339.61,137Z" transform="translate(-264.42 -123.03)" style="fill:#ec607f"/><path d="M343.07,137.91v-5.18h2.36v4.88a1.53,1.53,0,0,0,1.56,1.8c0.88,0,1.61-.61,1.61-2v-4.64h2.33v8.5h-2.31v-0.94a3,3,0,0,1-2.35,1.1C344.27,141.39,343.07,140.1,343.07,137.91Z" transform="translate(-264.42 -123.03)" style="fill:#ec607f"/><path d="M351.87,137a4.41,4.41,0,0,1,4.42-4.42,4.27,4.27,0,0,1,4.39,4.4v0.85h-6.56a2.15,2.15,0,0,0,2.26,1.55,2.25,2.25,0,0,0,2.09-1.33l1.85,1.1A4.53,4.53,0,0,1,351.87,137Zm2.35-1h4.11a2,2,0,0,0-2-1.34A2.22,2.22,0,0,0,354.22,135.94Z" transform="translate(-264.42 -123.03)" style="fill:#ec607f"/><path d="M361.63,128.81H364v12.41h-2.33V128.81Z" transform="translate(-264.42 -123.03)" style="fill:#ec607f"/><path d="M368.14,140.85l-3.38-8.12h2.45L369.3,138l2-5.24h2.41l-4.93,12.43h-2.33Z" transform="translate(-264.42 -123.03)" style="fill:#ec607f"/><path d="M378.68,128.81H381v4.84a3,3,0,0,1,2.35-1.1c2,0,3.21,1.29,3.21,3.48v5.18h-2.36v-4.86c0-1.16-.53-1.82-1.56-1.82-0.88,0-1.61.61-1.61,2v4.64h-2.33V128.81Z" transform="translate(-264.42 -123.03)" style="fill:#ec607f"/><path d="M387.49,137a4.4,4.4,0,1,1,4.4,4.42A4.4,4.4,0,0,1,387.49,137Zm6.54,0a2.18,2.18,0,0,0-2.14-2.21,2.21,2.21,0,0,0,0,4.42A2.18,2.18,0,0,0,394,137Z" transform="translate(-264.42 -123.03)" style="fill:#ec607f"/><path d="M396.29,132.71l2.33,0,1.73,5.42,1.94-5.42h2.31l1.82,5.42,1.84-5.42h2.31l-3,8.5H405.3l-1.9-5.41-2,5.41h-2.26Z" transform="translate(-264.42 -123.03)" style="fill:#ec607f"/><path d="M415.74,128.81h3.89c2.86,0,4.57,1.82,4.57,4.16a3.78,3.78,0,0,1-2.4,3.69l2.82,4.56h-2.7l-3.72-6.14h1.16a2.18,2.18,0,0,0,2.46-2.11c0-1.24-.68-2-2.46-2H418.1v10.2h-2.36V128.81Z" transform="translate(-264.42 -123.03)" style="fill:#ec607f"/><path d="M424.38,137a4.41,4.41,0,0,1,4.42-4.42,4.27,4.27,0,0,1,4.39,4.4v0.85h-6.56a2.15,2.15,0,0,0,2.26,1.55A2.25,2.25,0,0,0,431,138l1.85,1.1A4.53,4.53,0,0,1,424.38,137Zm2.35-1h4.11a2,2,0,0,0-2-1.34A2.22,2.22,0,0,0,426.72,135.94Z" transform="translate(-264.42 -123.03)" style="fill:#ec607f"/><path d="M433.88,137a4.15,4.15,0,0,1,4.13-4.42,3.4,3.4,0,0,1,2.53,1v-0.83h2.33v8.5h-2.33v-1a3.31,3.31,0,0,1-2.57,1.12A4.2,4.2,0,0,1,433.88,137Zm6.73,0a2.19,2.19,0,0,0-2.18-2.28A2.29,2.29,0,1,0,440.61,137Z" transform="translate(-264.42 -123.03)" style="fill:#ec607f"/><path d="M443.81,137a4.4,4.4,0,0,1,4.4-4.42,4.33,4.33,0,0,1,4.1,2.69l-2.07.88a2.21,2.21,0,1,0,0,1.7l2.07,0.88a4.33,4.33,0,0,1-4.1,2.69A4.4,4.4,0,0,1,443.81,137Z" transform="translate(-264.42 -123.03)" style="fill:#ec607f"/><path d="M452.82,132.72h1.45v-2l2.33-1.27v3.26h1.6v2.09h-1.6v2.7c0,1.33.17,1.53,1.6,1.53v2.18h-0.34c-2.7,0-3.59-.92-3.59-3.69v-2.72h-1.45v-2.09Z" transform="translate(-264.42 -123.03)" style="fill:#ec607f"/><path d="M463.29,132.71l2.33,0,1.73,5.42,1.94-5.42h2.31l1.82,5.42,1.84-5.42h2.31l-3,8.5H472.3l-1.9-5.41-2,5.41h-2.26Z" transform="translate(-264.42 -123.03)" style="fill:#ec607f"/><path d="M477.55,137a4.4,4.4,0,1,1,4.4,4.42A4.4,4.4,0,0,1,477.55,137Zm6.54,0a2.18,2.18,0,0,0-2.14-2.21,2.21,2.21,0,0,0,0,4.42A2.18,2.18,0,0,0,484.1,137Z" transform="translate(-264.42 -123.03)" style="fill:#ec607f"/><path d="M487.29,132.72h2.31v1.39a2.4,2.4,0,0,1,2.35-1.39h0.93V135h-1.48c-1.24,0-1.79.65-1.79,2.23v4h-2.33v-8.5Z" transform="translate(-264.42 -123.03)" style="fill:#ec607f"/><path d="M497.41,137.82l-1.14,1.34v2.06h-2.33V128.81h2.33v7.67l3.13-3.76h2.7L499,136.39l3.26,4.83h-2.55Z" transform="translate(-264.42 -123.03)" style="fill:#ec607f"/><path d="M502.13,139.1l2.23-.87a1.78,1.78,0,0,0,1.79,1.16,1,1,0,0,0,1.17-.76c0-.46-0.83-0.6-1.82-0.78-1.53-.27-3.06-0.8-3.06-2.62,0-1.43,1.38-2.7,3.49-2.67a3.66,3.66,0,0,1,3.6,2l-2.06.87a1.59,1.59,0,0,0-1.56-.93c-0.76,0-1.1.32-1.1,0.7s0.49,0.51,1.77.76c1.43,0.29,3.08.8,3.08,2.63,0,1.24-1.16,2.87-3.6,2.84C504,141.39,502.74,140.59,502.13,139.1Z" transform="translate(-264.42 -123.03)" style="fill:#ec607f"/></svg>