<svg xmlns="http://www.w3.org/2000/svg" viewBox="0 0 392.48 214.8"><title>derivables</title><path d="M290.34,178.43h1.79l4.29,11.68h-1.81l-0.91-2.5h-4.93l-0.9,2.5h-1.82Zm-1,7.52h3.71l-1.86-5.12Z" transform="translate(-264.76 -140.31)" style="fill:#f2f2f2"/><path d="M296.27,182.11h1.36v-1.89l1.73-.94v2.83h1.7v1.54h-1.7v3.19c0,1.44.22,1.66,1.7,1.66v1.62h-0.26c-2.43,0-3.17-.77-3.17-3.27v-3.2h-1.36v-1.54Z" transform="translate(-264.76 -140.31)" style="fill:#f2f2f2"/><path d="M301.89,186.11a4.15,4.15,0,1,1,4.15,4.16A4.12,4.12,0,0,1,301.89,186.11Zm6.61,0a2.46,2.46,0,1,0-2.46,2.56A2.51,2.51,0,0,0,308.5,186.11Z" transform="translate(-264.76 -140.31)" style="fill:#f2f2f2"/><path d="M311.55,182.11h1.7v1a2.8,2.8,0,0,1,2.35-1.12,2.77,2.77,0,0,1,2.64,1.44,3.1,3.1,0,0,1,2.71-1.44,3,3,0,0,1,3.31,3.36v4.8h-1.74v-4.69a1.77,1.77,0,0,0-1.86-2,1.9,1.9,0,0,0-1.9,2.16v4.51H317v-4.77a1.71,1.71,0,0,0-1.81-1.9,1.94,1.94,0,0,0-2,2.23v4.45h-1.71v-8Z" transform="translate(-264.76 -140.31)" style="fill:#f2f2f2"/><path d="M325.31,188.41l1.54-.8a2.28,2.28,0,0,0,2,1.17,1.23,1.23,0,0,0,1.46-1.06c0-.64-0.93-0.78-1.94-1-1.36-.29-2.77-0.74-2.77-2.38,0-1.26,1.2-2.43,3.09-2.42a3.64,3.64,0,0,1,3.22,1.55l-1.42.78a2.07,2.07,0,0,0-1.79-.91,1.15,1.15,0,0,0-1.38,1c0,0.58.74,0.74,1.89,1,1.31,0.29,2.8.72,2.8,2.38,0,1.1-1,2.59-3.23,2.58A3.74,3.74,0,0,1,325.31,188.41Z" transform="translate(-264.76 -140.31)" style="fill:#f2f2f2"/><line x1="62.46" y1="78.99" x2="151.63" y2="96.28" style="fill:none;stroke:#48f3a5;stroke-miterlimit:10"/><path d="M422.31,237.74a30.22,30.22,0,0,0-9.3,3l2.59-4.34-0.78-5A30.2,30.2,0,0,0,422.31,237.74Z" transform="translate(-264.76 -140.31)" style="fill:#48f3a5"/><path d="M418.23,178.43h3.23c3.79,0,6.13,2.53,6.13,5.84a5.8,5.8,0,0,1-6.07,5.84h-3.3V178.43ZM420,180v8.47h1.38a4.19,4.19,0,0,0,4.48-4.23c0-2.45-1.62-4.24-4.55-4.24H420Z" transform="translate(-264.76 -140.31)" style="fill:#f2f2f2"/><path d="M428.77,186.14a4.12,4.12,0,0,1,4.16-4.19A4,4,0,0,1,437,186v0.67h-6.63a2.45,2.45,0,0,0,2.58,2,2.51,2.51,0,0,0,2.34-1.44l1.41,0.78A4.26,4.26,0,0,1,428.77,186.14Zm1.73-.9h4.8a2.23,2.23,0,0,0-2.37-1.79A2.49,2.49,0,0,0,430.5,185.25Z" transform="translate(-264.76 -140.31)" style="fill:#f2f2f2"/><path d="M438.42,182.11h1.71v1.23a2.32,2.32,0,0,1,2.21-1.23h0.94v1.63h-1.2c-1.39,0-1.94.74-1.94,2.4v4h-1.73v-8Z" transform="translate(-264.76 -140.31)" style="fill:#f2f2f2"/><path d="M444.66,178.76h1.73V181h-1.73v-2.24Zm0,3.35h1.73v8h-1.73v-8Z" transform="translate(-264.76 -140.31)" style="fill:#f2f2f2"/><path d="M447.57,182.11h1.81l2.13,5.78,2.1-5.78h1.78l-3,8h-1.71Z" transform="translate(-264.76 -140.31)" style="fill:#f2f2f2"/><path d="M455.78,186.11a4,4,0,0,1,4-4.16,3.45,3.45,0,0,1,2.66,1.2v-1h1.71v8h-1.71V189a3.41,3.41,0,0,1-2.67,1.26A4,4,0,0,1,455.78,186.11Zm6.75,0A2.53,2.53,0,1,0,460,188.7,2.53,2.53,0,0,0,462.54,186.09Z" transform="translate(-264.76 -140.31)" style="fill:#f2f2f2"/><path d="M465.44,182.11h1.36v-1.89l1.73-.94v2.83h1.7v1.54h-1.7v3.19c0,1.44.22,1.66,1.7,1.66v1.62H470c-2.43,0-3.17-.77-3.17-3.27v-3.2h-1.36v-1.54Z" transform="translate(-264.76 -140.31)" style="fill:#f2f2f2"/><path d="M471.65,178.76h1.73V181h-1.73v-2.24Zm0,3.35h1.73v8h-1.73v-8Z" transform="translate(-264.76 -140.31)" style="fill:#f2f2f2"/><path d="M474.74,186.11a4.15,4.15,0,1,1,4.15,4.16A4.12,4.12,0,0,1,474.74,186.11Zm6.61,0a2.46,2.46,0,1,0-2.46,2.56A2.51,2.51,0,0,0,481.35,186.11Z" transform="translate(-264.76 -140.31)" style="fill:#f2f2f2"/><path d="M484.4,182.11h1.7v1a3,3,0,0,1,2.46-1.2c2,0,3.25,1.31,3.25,3.49v4.67h-1.73v-4.53a1.86,1.86,0,0,0-1.94-2.15,2.06,2.06,0,0,0-2,2.27v4.4H484.4v-8Z" transform="translate(-264.76 -140.31)" style="fill:#f2f2f2"/><path d="M492.87,188.41l1.54-.8a2.28,2.28,0,0,0,2,1.17,1.23,1.23,0,0,0,1.46-1.06c0-.64-0.93-0.78-1.94-1-1.36-.29-2.77-0.74-2.77-2.38,0-1.26,1.2-2.43,3.09-2.42a3.64,3.64,0,0,1,3.22,1.55l-1.42.78a2.07,2.07,0,0,0-1.79-.91,1.15,1.15,0,0,0-1.38,1c0,0.58.74,0.74,1.89,1,1.31,0.29,2.8.72,2.8,2.38,0,1.1-1,2.59-3.23,2.58A3.74,3.74,0,0,1,492.87,188.41Z" transform="translate(-264.76 -140.31)" style="fill:#f2f2f2"/><path d="M593.3,178.43h3.63a3.84,3.84,0,0,1,4.13,3.81,3.58,3.58,0,0,1-2.53,3.54l2.79,4.34h-2l-3.52-5.57h0.94a2.38,2.38,0,0,0,2.58-2.3c0-1.31-.85-2.19-2.56-2.19H595v10.07H593.3V178.43Z" transform="translate(-264.76 -140.31)" style="fill:#f2f2f2"/><path d="M601.73,186.14a4.12,4.12,0,0,1,4.16-4.19A4,4,0,0,1,610,186v0.67h-6.63a2.45,2.45,0,0,0,2.58,2,2.51,2.51,0,0,0,2.34-1.44l1.41,0.78A4.26,4.26,0,0,1,601.73,186.14Zm1.73-.9h4.8a2.23,2.23,0,0,0-2.37-1.79A2.49,2.49,0,0,0,603.46,185.25Z" transform="translate(-264.76 -140.31)" style="fill:#f2f2f2"/><path d="M611.11,186.11a4,4,0,0,1,4-4.16,3.45,3.45,0,0,1,2.66,1.2v-1h1.71v8h-1.71V189a3.41,3.41,0,0,1-2.67,1.26A4,4,0,0,1,611.11,186.11Zm6.75,0a2.53,2.53,0,1,0-2.53,2.61A2.53,2.53,0,0,0,617.87,186.09Z" transform="translate(-264.76 -140.31)" style="fill:#f2f2f2"/><path d="M620.84,186.11a4.12,4.12,0,0,1,4.18-4.16,4,4,0,0,1,3.79,2.45l-1.54.66a2.39,2.39,0,0,0-2.26-1.5,2.49,2.49,0,0,0-2.5,2.56,2.52,2.52,0,0,0,2.53,2.56,2.41,2.41,0,0,0,2.26-1.57l1.55,0.66a4,4,0,0,1-3.84,2.51A4.13,4.13,0,0,1,620.84,186.11Z" transform="translate(-264.76 -140.31)" style="fill:#f2f2f2"/><path d="M629.62,182.11H631v-1.89l1.73-.94v2.83h1.7v1.54h-1.7v3.19c0,1.44.22,1.66,1.7,1.66v1.62h-0.26c-2.43,0-3.17-.77-3.17-3.27v-3.2h-1.36v-1.54Z" transform="translate(-264.76 -140.31)" style="fill:#f2f2f2"/><path d="M635.24,186.11a4.15,4.15,0,1,1,4.15,4.16A4.12,4.12,0,0,1,635.24,186.11Zm6.61,0a2.46,2.46,0,1,0-2.46,2.56A2.51,2.51,0,0,0,641.85,186.11Z" transform="translate(-264.76 -140.31)" style="fill:#f2f2f2"/><path d="M644.9,182.11h1.71v1.23a2.32,2.32,0,0,1,2.21-1.23h0.94v1.63h-1.2c-1.39,0-1.94.74-1.94,2.4v4H644.9v-8Z" transform="translate(-264.76 -140.31)" style="fill:#f2f2f2"/><path d="M650.5,188.41l1.54-.8a2.28,2.28,0,0,0,2,1.17,1.23,1.23,0,0,0,1.46-1.06c0-.64-0.93-0.78-1.94-1-1.36-.29-2.77-0.74-2.77-2.38,0-1.26,1.2-2.43,3.09-2.42a3.64,3.64,0,0,1,3.22,1.55l-1.42.78a2.07,2.07,0,0,0-1.79-.91,1.15,1.15,0,0,0-1.38,1c0,0.58.74,0.74,1.89,1,1.31,0.29,2.8.72,2.8,2.38,0,1.1-1,2.59-3.23,2.58A3.74,3.74,0,0,1,650.5,188.41Z" transform="translate(-264.76 -140.31)" style="fill:#f2f2f2"/><path d="M264.76,140.31h3.78c4.69,0,7.33,3,7.33,6.93a6.86,6.86,0,0,1-7.22,6.93h-3.89V140.31Zm2.64,2.45v9h1c3,0,4.88-1.94,4.88-4.48s-1.6-4.48-5-4.48H267.4Z" transform="translate(-264.76 -140.31)" style="fill:#ec607f"/><path d="M276.63,149.43a4.93,4.93,0,0,1,4.94-4.94,4.78,4.78,0,0,1,4.9,4.92v0.95h-7.33a2.4,2.4,0,0,0,2.53,1.73,2.52,2.52,0,0,0,2.34-1.48l2.07,1.23A5.06,5.06,0,0,1,276.63,149.43Zm2.62-1.16h4.6a2.21,2.21,0,0,0-2.26-1.5A2.48,2.48,0,0,0,279.26,148.27Z" transform="translate(-264.76 -140.31)" style="fill:#ec607f"/><path d="M287.54,144.68h2.58v1.56a2.68,2.68,0,0,1,2.62-1.56h1v2.53h-1.65c-1.39,0-2,.72-2,2.49v4.48h-2.6v-9.5Z" transform="translate(-264.76 -140.31)" style="fill:#ec607f"/><path d="M295,141.13h2.6v2.6H295v-2.6Zm0,3.55h2.6v9.5H295v-9.5Z" transform="translate(-264.76 -140.31)" style="fill:#ec607f"/><path d="M298.54,144.68h2.68l2.22,6.17,2.17-6.17h2.64l-3.5,9.5h-2.62Z" transform="translate(-264.76 -140.31)" style="fill:#ec607f"/><path d="M308.12,149.43a4.63,4.63,0,0,1,4.62-4.94,3.81,3.81,0,0,1,2.83,1.12v-0.93h2.6v9.5h-2.6v-1.06a3.7,3.7,0,0,1-2.87,1.25A4.69,4.69,0,0,1,308.12,149.43Zm7.52,0a2.45,2.45,0,0,0-2.43-2.55A2.56,2.56,0,1,0,315.64,149.41Z" transform="translate(-264.76 -140.31)" style="fill:#ec607f"/><path d="M322.1,153.16v1h-2.6V140.31h2.6v5.41a3.56,3.56,0,0,1,2.85-1.23,4.62,4.62,0,0,1,4.6,4.94,4.68,4.68,0,0,1-4.56,4.94A3.66,3.66,0,0,1,322.1,153.16Zm4.9-3.74a2.49,2.49,0,0,0-2.55-2.55,2.56,2.56,0,0,0,0,5.11A2.5,2.5,0,0,0,327,149.41Z" transform="translate(-264.76 -140.31)" style="fill:#ec607f"/><path d="M330.52,140.31h2.6v13.87h-2.6V140.31Z" transform="translate(-264.76 -140.31)" style="fill:#ec607f"/><path d="M334.17,149.43a4.93,4.93,0,0,1,4.94-4.94,4.78,4.78,0,0,1,4.9,4.92v0.95h-7.33a2.4,2.4,0,0,0,2.53,1.73,2.52,2.52,0,0,0,2.34-1.48l2.07,1.23A5.06,5.06,0,0,1,334.17,149.43Zm2.62-1.16h4.6a2.21,2.21,0,0,0-2.26-1.5A2.48,2.48,0,0,0,336.79,148.27Z" transform="translate(-264.76 -140.31)" style="fill:#ec607f"/><path d="M344.5,151.81l2.49-1a2,2,0,0,0,2,1.29,1.09,1.09,0,0,0,1.31-.85c0-.51-0.93-0.66-2-0.87-1.71-.3-3.42-0.89-3.42-2.93,0-1.6,1.54-3,3.89-3a4.09,4.09,0,0,1,4,2.2l-2.3,1a1.78,1.78,0,0,0-1.75-1c-0.85,0-1.23.36-1.23,0.78s0.55,0.57,2,.85c1.6,0.32,3.44.89,3.44,2.94,0,1.39-1.29,3.21-4,3.17C346.57,154.37,345.19,153.48,344.5,151.81Z" transform="translate(-264.76 -140.31)" style="fill:#ec607f"/><path d="M358.31,149.43a4.63,4.63,0,0,1,4.62-4.94,3.81,3.81,0,0,1,2.83,1.12v-0.93h2.6v9.5h-2.6v-1.06a3.7,3.7,0,0,1-2.87,1.25A4.69,4.69,0,0,1,358.31,149.43Zm7.52,0a2.45,2.45,0,0,0-2.43-2.55A2.56,2.56,0,1,0,365.84,149.41Z" transform="translate(-264.76 -140.31)" style="fill:#ec607f"/><path d="M369.79,144.68h2.58v1.56a2.68,2.68,0,0,1,2.62-1.56h1v2.53h-1.65c-1.39,0-2,.72-2,2.49v4.48h-2.6v-9.5Z" transform="translate(-264.76 -140.31)" style="fill:#ec607f"/><path d="M376.55,149.43a4.93,4.93,0,0,1,4.94-4.94,4.78,4.78,0,0,1,4.9,4.92v0.95h-7.33a2.4,2.4,0,0,0,2.53,1.73,2.52,2.52,0,0,0,2.34-1.48l2.07,1.23A5.06,5.06,0,0,1,376.55,149.43Zm2.62-1.16h4.6a2.21,2.21,0,0,0-2.26-1.5A2.48,2.48,0,0,0,379.18,148.27Z" transform="translate(-264.76 -140.31)" style="fill:#ec607f"/><path d="M391.83,149.43a4.93,4.93,0,0,1,4.94-4.94,4.78,4.78,0,0,1,4.9,4.92v0.95h-7.33a2.4,2.4,0,0,0,2.53,1.73,2.52,2.52,0,0,0,2.34-1.48l2.07,1.23A5.06,5.06,0,0,1,391.83,149.43Zm2.62-1.16H399a2.21,2.21,0,0,0-2.26-1.5A2.48,2.48,0,0,0,394.45,148.27Z" transform="translate(-264.76 -140.31)" style="fill:#ec607f"/><path d="M405,149.36l-3.36-4.67h3.17l1.84,2.66,1.8-2.66h3.06l-3.29,4.69,3.55,4.81h-3.17l-2-2.77-1.94,2.77H401.5Z" transform="translate(-264.76 -140.31)" style="fill:#ec607f"/><path d="M411.13,149.43a4.63,4.63,0,0,1,4.62-4.94,3.81,3.81,0,0,1,2.83,1.12v-0.93h2.6v9.5h-2.6v-1.06a3.7,3.7,0,0,1-2.87,1.25A4.69,4.69,0,0,1,411.13,149.43Zm7.52,0a2.45,2.45,0,0,0-2.43-2.55A2.56,2.56,0,1,0,418.66,149.41Z" transform="translate(-264.76 -140.31)" style="fill:#ec607f"/><path d="M422.23,149.43a4.91,4.91,0,0,1,4.92-4.94,4.84,4.84,0,0,1,4.58,3l-2.32,1a2.47,2.47,0,1,0,0,1.9l2.32,1a4.84,4.84,0,0,1-4.58,3A4.91,4.91,0,0,1,422.23,149.43Z" transform="translate(-264.76 -140.31)" style="fill:#ec607f"/><path d="M432.3,144.68h1.62v-2.22l2.6-1.42v3.65h1.79V147h-1.79v3c0,1.48.19,1.71,1.79,1.71v2.43h-0.38c-3,0-4-1-4-4.12v-3H432.3v-2.34Z" transform="translate(-264.76 -140.31)" style="fill:#ec607f"/><path d="M439.54,140.31h2.6v13.87h-2.6V140.31Z" transform="translate(-264.76 -140.31)" style="fill:#ec607f"/><path d="M446.81,153.76L443,144.68h2.74l2.34,5.85,2.19-5.85H453l-5.51,13.89h-2.6Z" transform="translate(-264.76 -140.31)" style="fill:#ec607f"/><path d="M458.6,140.31h2.6v13.87h-2.6V140.31Z" transform="translate(-264.76 -140.31)" style="fill:#ec607f"/><path d="M462.62,141.13h2.6v2.6h-2.6v-2.6Zm0,3.55h2.6v9.5h-2.6v-9.5Z" transform="translate(-264.76 -140.31)" style="fill:#ec607f"/><path d="M470.52,150.38l-1.27,1.5v2.3h-2.6V140.31h2.6v8.57l3.5-4.2h3l-3.46,4.1,3.65,5.4h-2.85Z" transform="translate(-264.76 -140.31)" style="fill:#ec607f"/><path d="M475.43,149.43a4.93,4.93,0,0,1,4.94-4.94,4.78,4.78,0,0,1,4.9,4.92v0.95h-7.33a2.4,2.4,0,0,0,2.53,1.73,2.52,2.52,0,0,0,2.34-1.48l2.07,1.23A5.06,5.06,0,0,1,475.43,149.43Zm2.62-1.16h4.6a2.21,2.21,0,0,0-2.26-1.5A2.48,2.48,0,0,0,478.05,148.27Z" transform="translate(-264.76 -140.31)" style="fill:#ec607f"/><circle cx="41.46" cy="78.69" r="11.11" style="fill:#f6d743"/><circle cx="57.02" cy="132.27" r="11.11" style="fill:#f6d743"/><circle cx="31.13" cy="192.13" r="11.11" style="fill:#f6d743"/><circle cx="152.57" cy="158.71" r="11.11" style="fill:#ec607f"/><circle cx="248.46" cy="177.02" r="11.11" style="fill:#ec607f"/><circle cx="174.8" cy="102.27" r="11.11" style="fill:#ec607f"/><circle cx="181.8" cy="203.69" r="11.11" style="fill:#ec607f"/><circle cx="210.91" cy="143.96" r="11.11" style="fill:#ec607f"/><circle cx="226.24" cy="82.02" r="11.11" style="fill:#ec607f"/><circle cx="259.57" cy="121.16" r="11.11" style="fill:#ec607f"/><line x1="73.24" y1="126.94" x2="151.72" y2="107.37" style="fill:none;stroke:#48f3a5;stroke-miterlimit:10"/><path d="M422.33,246.22a30.22,30.22,0,0,0-7.14,6.68l0.52-5-2.82-4.2A30.2,30.2,0,0,0,422.33,246.22Z" transform="translate(-264.76 -140.31)" style="fill:#48f3a5"/><line x1="74.99" y1="132.27" x2="188.22" y2="141.45" style="fill:none;stroke:#48f3a5;stroke-miterlimit:10"/><path d="M459,282.25a30.22,30.22,0,0,0-8.9,4l2.1-4.6-1.33-4.88A30.2,30.2,0,0,0,459,282.25Z" transform="translate(-264.76 -140.31)" style="fill:#48f3a5"/><line x1="47.74" y1="187.69" x2="131.96" y2="161.58" style="fill:none;stroke:#48f3a5;stroke-miterlimit:10"/><path d="M402.48,300.11a30.22,30.22,0,0,0-6.76,7.07l0.24-5.05-3.05-4A30.2,30.2,0,0,0,402.48,300.11Z" transform="translate(-264.76 -140.31)" style="fill:#48f3a5"/><line x1="49.46" y1="192.13" x2="160.48" y2="203.09" style="fill:none;stroke:#48f3a5;stroke-miterlimit:10"/><path d="M431.25,344a30.22,30.22,0,0,0-9,3.89l2.18-4.56-1.24-4.9A30.2,30.2,0,0,0,431.25,344Z" transform="translate(-264.76 -140.31)" style="fill:#48f3a5"/><line x1="157.24" y1="143.96" x2="166.58" y2="122.55" style="fill:none;stroke:#48f3a5;stroke-miterlimit:10"/><path d="M433.75,257.33a30.22,30.22,0,0,0,.94,9.74L431,263.59l-5-.32A30.2,30.2,0,0,0,433.75,257.33Z" transform="translate(-264.76 -140.31)" style="fill:#48f3a5"/><line x1="188.74" y1="105.94" x2="237.58" y2="115.82" style="fill:none;stroke:#48f3a5;stroke-miterlimit:10"/><path d="M508.25,257.33a30.22,30.22,0,0,0-9.32,3l2.63-4.32-0.74-5A30.2,30.2,0,0,0,508.25,257.33Z" transform="translate(-264.76 -140.31)" style="fill:#48f3a5"/><line x1="167.49" y1="161.44" x2="227.31" y2="172.81" style="fill:none;stroke:#48f3a5;stroke-miterlimit:10"/><path d="M498,314.25a30.22,30.22,0,0,0-9.29,3.08l2.58-4.35-0.8-5A30.2,30.2,0,0,0,498,314.25Z" transform="translate(-264.76 -140.31)" style="fill:#48f3a5"/><line x1="224.49" y1="139.69" x2="238.77" y2="133.04" style="fill:none;stroke:#48f3a5;stroke-miterlimit:10"/><path d="M509,270.81a30.22,30.22,0,0,0-5.74,7.92l-0.45-5-3.57-3.58A30.19,30.19,0,0,0,509,270.81Z" transform="translate(-264.76 -140.31)" style="fill:#48f3a5"/><line x1="222.02" y1="153.69" x2="232.58" y2="162.14" style="fill:none;stroke:#48f3a5;stroke-miterlimit:10"/><path d="M502.06,306.22a30.22,30.22,0,0,0-9.65-1.63l4.31-2.64,1.63-4.79A30.2,30.2,0,0,0,502.06,306.22Z" transform="translate(-264.76 -140.31)" style="fill:#48f3a5"/><line x1="213.24" y1="129.19" x2="219.55" y2="103.55" style="fill:none;stroke:#48f3a5;stroke-miterlimit:10"/><path d="M485.75,238a30.22,30.22,0,0,0,2.58,9.44l-4.21-2.81-5,.53A30.2,30.2,0,0,0,485.75,238Z" transform="translate(-264.76 -140.31)" style="fill:#48f3a5"/><circle cx="344.35" cy="94.27" r="14.22" style="fill:none;stroke:#b3b3b3;stroke-miterlimit:10;stroke-width:2px;stroke-dasharray:4"/><circle cx="359.8" cy="148.71" r="14.22" style="fill:none;stroke:#b3b3b3;stroke-miterlimit:10;stroke-width:2px;stroke-dasharray:4"/><circle cx="331.34" cy="197.8" r="14.22" style="fill:none;stroke:#b3b3b3;stroke-miterlimit:10;stroke-width:2px;stroke-dasharray:4"/><line x1="197.03" y1="205.26" x2="303.39" y2="198.2" style="fill:none;stroke:#b3b3b3;stroke-miterlimit:10;stroke-dasharray:4,4"/><path d="M574.17,338.11a30.22,30.22,0,0,0-8.21,5.31l1.4-4.86-2-4.63A30.2,30.2,0,0,0,574.17,338.11Z" transform="translate(-264.76 -140.31)" style="fill:#b3b3b3"/><line x1="242.71" y1="82.02" x2="315.62" y2="92.29" style="fill:none;stroke:#b3b3b3;stroke-miterlimit:10;stroke-dasharray:4,4"/><path d="M586.36,233.44a30.22,30.22,0,0,0-9.13,3.52l2.37-4.47-1-4.95A30.2,30.2,0,0,0,586.36,233.44Z" transform="translate(-264.76 -140.31)" style="fill:#b3b3b3"/><line x1="264.95" y1="174.5" x2="332.81" y2="151.72" style="fill:none;stroke:#b3b3b3;stroke-miterlimit:10;stroke-dasharray:4,4"/><path d="M603.3,290.11a30.22,30.22,0,0,0-6.59,7.23l0.12-5.06-3.14-4A30.2,30.2,0,0,0,603.3,290.11Z" transform="translate(-264.76 -140.31)" style="fill:#b3b3b3"/></svg>