<svg xmlns="http://www.w3.org/2000/svg" viewBox="0 0 542.61 336.35"><title>bad-tools</title><path d="M328.43,404.67h6c4.59,0,7.5,2.91,7.5,6.83s-2.91,6.89-7.5,6.89h-4.93v6.72h-1V404.67Zm1,1v11.76h4.87c4,0,6.5-2.52,6.5-5.91s-2.46-5.85-6.5-5.85h-4.87Z" transform="translate(-119.16 -95.23)" style="fill:#f6d743"/><path d="M345.51,411.11h1v3.61a5.4,5.4,0,0,1,5.26-3.61h0.9v1h-0.9c-3.16,0-5.24,2.21-5.24,5.68v7.34h-1v-14Z" transform="translate(-119.16 -95.23)" style="fill:#f6d743"/><path d="M354,418.11a7.28,7.28,0,1,1,7.28,7.28A7.25,7.25,0,0,1,354,418.11Zm13.5,0a6.22,6.22,0,1,0-6.22,6.33A6.24,6.24,0,0,0,367.49,418.11Z" transform="translate(-119.16 -95.23)" style="fill:#f6d743"/><path d="M373.12,421.44v3.67h-1V404.67h1v10.11a6.66,6.66,0,0,1,6.19-3.95,7.28,7.28,0,0,1,0,14.56A6.62,6.62,0,0,1,373.12,421.44Zm12.35-3.33a6.23,6.23,0,1,0-6.22,6.33A6.24,6.24,0,0,0,385.47,418.11Z" transform="translate(-119.16 -95.23)" style="fill:#f6d743"/><path d="M390.15,404.67h1v20.44h-1V404.67Z" transform="translate(-119.16 -95.23)" style="fill:#f6d743"/><path d="M394.74,418.14a7.18,7.18,0,0,1,7.28-7.31,7,7,0,0,1,7.14,7.17v0.48H395.75a6,6,0,0,0,6.36,6,5.92,5.92,0,0,0,5.85-4.12l0.9,0.42a6.77,6.77,0,0,1-6.75,4.62A7,7,0,0,1,394.74,418.14Zm1-.62h12.35a5.91,5.91,0,0,0-6.1-5.77A6.22,6.22,0,0,0,395.77,417.52Z" transform="translate(-119.16 -95.23)" style="fill:#f6d743"/><path d="M412.71,411.11h1v3.08a5.62,5.62,0,0,1,5.35-3.36c2.91,0,4.9,1.48,5.6,3.84a6,6,0,0,1,5.8-3.84,5.88,5.88,0,0,1,6.24,6.24v8h-1V417a5,5,0,0,0-5.26-5.24,5,5,0,0,0-5.32,5.15v8.18h-1v-8.34c0-3-1.93-5-5.1-5a5.11,5.11,0,0,0-5.26,5.4v7.92h-1v-14Z" transform="translate(-119.16 -95.23)" style="fill:#f6d743"/><path d="M447.35,418.11a7.3,7.3,0,0,1,14-2.94l-1,.42a6.08,6.08,0,0,0-5.68-3.81,6.33,6.33,0,0,0,0,12.66,6.12,6.12,0,0,0,5.71-3.86l1,0.42A7.32,7.32,0,0,1,447.35,418.11Z" transform="translate(-119.16 -95.23)" style="fill:#f6d743"/><path d="M464.15,418.11a7.28,7.28,0,1,1,7.28,7.28A7.25,7.25,0,0,1,464.15,418.11Zm13.5,0a6.22,6.22,0,1,0-6.22,6.33A6.24,6.24,0,0,0,477.64,418.11Z" transform="translate(-119.16 -95.23)" style="fill:#f6d743"/><path d="M482.21,411.11h1v3.08a5.62,5.62,0,0,1,5.35-3.36c2.91,0,4.9,1.48,5.6,3.84a6,6,0,0,1,5.8-3.84,5.88,5.88,0,0,1,6.24,6.24v8h-1V417a5,5,0,0,0-5.26-5.24,5,5,0,0,0-5.32,5.15v8.18h-1v-8.34c0-3-1.93-5-5.1-5a5.11,5.11,0,0,0-5.26,5.4v7.92h-1v-14Z" transform="translate(-119.16 -95.23)" style="fill:#f6d743"/><path d="M511.3,421.53v10h-1V411.11h1v3.61a6.7,6.7,0,0,1,6.16-3.89,7.28,7.28,0,0,1,0,14.56A6.52,6.52,0,0,1,511.3,421.53Zm12.35-3.42a6.24,6.24,0,1,0-6.22,6.33A6.24,6.24,0,0,0,523.65,418.11Z" transform="translate(-119.16 -95.23)" style="fill:#f6d743"/><path d="M528.3,404.67h1v20.44h-1V404.67Z" transform="translate(-119.16 -95.23)" style="fill:#f6d743"/><path d="M532.89,418.14a7.19,7.19,0,0,1,7.28-7.31,7,7,0,0,1,7.14,7.17v0.48H533.89a6,6,0,0,0,6.36,6,5.92,5.92,0,0,0,5.85-4.12l0.9,0.42a6.77,6.77,0,0,1-6.75,4.62A7,7,0,0,1,532.89,418.14Zm1-.62h12.35a5.91,5.91,0,0,0-6.1-5.77A6.22,6.22,0,0,0,533.92,417.52Z" transform="translate(-119.16 -95.23)" style="fill:#f6d743"/><path d="M555,417.94l-5.43-6.83h1.23l4.84,6.08,4.87-6.08h1.23l-5.49,6.83,5.77,7.17h-1.26l-5.15-6.38-5.07,6.38h-1.29Z" transform="translate(-119.16 -95.23)" style="fill:#f6d743"/><path d="M565.06,404.67h1v4.14h-1v-4.14Zm0,6.44h1v14h-1v-14Z" transform="translate(-119.16 -95.23)" style="fill:#f6d743"/><path d="M569,411.11h2.46v-3.22l1-.73v3.95h3.84V412h-3.84v8.2c0,3.36.76,3.92,3.84,3.92v1h-0.14c-3.72,0-4.7-1-4.7-4.84V412H569v-0.92Z" transform="translate(-119.16 -95.23)" style="fill:#f6d743"/><path d="M585.16,424.33l-6.38-13.22h1.15l5.77,12,5.43-12h1.12L583,431.58h-1.12Z" transform="translate(-119.16 -95.23)" style="fill:#f6d743"/><path d="M129.43,227.73h1.06v20.44h-1.06V227.73Z" transform="translate(-119.16 -95.23)" style="fill:#f6d743"/><path d="M135.16,234.17h1v3.22a6,6,0,0,1,5.63-3.5c3.72,0,6.3,2.41,6.3,6.41v7.87h-1v-7.9c0-3.3-2-5.43-5.38-5.43a5.38,5.38,0,0,0-5.49,5.43v7.9h-1v-14Z" transform="translate(-119.16 -95.23)" style="fill:#f6d743"/><path d="M151.54,241.17a7.3,7.3,0,0,1,14-2.94l-1,.42a6.08,6.08,0,0,0-5.68-3.81,6.33,6.33,0,0,0,0,12.66,6.12,6.12,0,0,0,5.71-3.86l1,0.42A7.32,7.32,0,0,1,151.54,241.17Z" transform="translate(-119.16 -95.23)" style="fill:#f6d743"/><path d="M169,227.73h1v4.14h-1v-4.14Zm0,6.44h1v14h-1v-14Z" transform="translate(-119.16 -95.23)" style="fill:#f6d743"/><path d="M173.52,241.17a7.21,7.21,0,0,1,7.25-7.28,6.65,6.65,0,0,1,6.16,3.95V227.73h1v20.44h-1v-3.72a6.64,6.64,0,0,1-6.19,4A7.22,7.22,0,0,1,173.52,241.17Zm13.52,0a6.23,6.23,0,1,0-6.24,6.33A6.23,6.23,0,0,0,187,241.17Z" transform="translate(-119.16 -95.23)" style="fill:#f6d743"/><path d="M191.53,241.19a7.18,7.18,0,0,1,7.28-7.31,7,7,0,0,1,7.14,7.17v0.48H192.54a6,6,0,0,0,6.36,6,5.92,5.92,0,0,0,5.85-4.12l0.9,0.42a6.77,6.77,0,0,1-6.75,4.62A7,7,0,0,1,191.53,241.19Zm1-.62h12.35a5.91,5.91,0,0,0-6.1-5.77A6.22,6.22,0,0,0,192.56,240.58Z" transform="translate(-119.16 -95.23)" style="fill:#f6d743"/><path d="M209.5,234.17h1v3.22a6,6,0,0,1,5.63-3.5c3.72,0,6.3,2.41,6.3,6.41v7.87h-1v-7.9c0-3.3-2-5.43-5.38-5.43a5.38,5.38,0,0,0-5.49,5.43v7.9h-1v-14Z" transform="translate(-119.16 -95.23)" style="fill:#f6d743"/><path d="M224.93,234.17h2.46v-3.22l1-.73v3.95h3.84v0.92H228.4v8.2c0,3.36.76,3.92,3.84,3.92v1H232.1c-3.72,0-4.7-1-4.7-4.84v-8.23h-2.46v-0.92Z" transform="translate(-119.16 -95.23)" style="fill:#f6d743"/><path d="M234.09,241.17a7.21,7.21,0,0,1,7.25-7.28,6.64,6.64,0,0,1,6.19,4v-3.72h1v14h-1v-3.72a6.64,6.64,0,0,1-6.19,4A7.22,7.22,0,0,1,234.09,241.17Zm13.52,0a6.23,6.23,0,1,0-6.24,6.33A6.23,6.23,0,0,0,247.61,241.17Z" transform="translate(-119.16 -95.23)" style="fill:#f6d743"/><path d="M252.76,227.73h1v20.44h-1V227.73Z" transform="translate(-119.16 -95.23)" style="fill:#f6d743"/><path d="M119.16,274.77a7.3,7.3,0,0,1,14-2.94l-1,.42a6.08,6.08,0,0,0-5.68-3.81,6.33,6.33,0,0,0,0,12.66,6.12,6.12,0,0,0,5.71-3.86l1,0.42A7.32,7.32,0,0,1,119.16,274.77Z" transform="translate(-119.16 -95.23)" style="fill:#f6d743"/><path d="M136,274.77a7.28,7.28,0,1,1,7.28,7.28A7.25,7.25,0,0,1,136,274.77Zm13.5,0a6.22,6.22,0,1,0-6.22,6.33A6.24,6.24,0,0,0,149.46,274.77Z" transform="translate(-119.16 -95.23)" style="fill:#f6d743"/><path d="M154,267.77h1v3.08a5.62,5.62,0,0,1,5.35-3.36c2.91,0,4.9,1.48,5.6,3.84a6,6,0,0,1,5.8-3.84,5.88,5.88,0,0,1,6.24,6.24v8h-1v-8.09a5,5,0,0,0-5.26-5.24,5,5,0,0,0-5.32,5.15v8.18h-1v-8.34c0-3-1.93-5-5.1-5a5.11,5.11,0,0,0-5.26,5.4v7.92h-1v-14Z" transform="translate(-119.16 -95.23)" style="fill:#f6d743"/><path d="M183.11,278.18v10h-1V267.77h1v3.61a6.7,6.7,0,0,1,6.16-3.89,7.28,7.28,0,0,1,0,14.56A6.52,6.52,0,0,1,183.11,278.18Zm12.35-3.42a6.24,6.24,0,1,0-6.22,6.33A6.24,6.24,0,0,0,195.46,274.77Z" transform="translate(-119.16 -95.23)" style="fill:#f6d743"/><path d="M200.11,261.33h1v20.44h-1V261.33Z" transform="translate(-119.16 -95.23)" style="fill:#f6d743"/><path d="M204.7,274.79a7.18,7.18,0,0,1,7.28-7.31,7,7,0,0,1,7.14,7.17v0.48H205.71a6,6,0,0,0,6.36,6,5.92,5.92,0,0,0,5.85-4.12l0.9,0.42a6.77,6.77,0,0,1-6.75,4.62A7,7,0,0,1,204.7,274.79Zm1-.62h12.35a5.91,5.91,0,0,0-6.1-5.77A6.22,6.22,0,0,0,205.74,274.18Z" transform="translate(-119.16 -95.23)" style="fill:#f6d743"/><path d="M226.79,274.6l-5.43-6.83h1.23l4.84,6.08,4.87-6.08h1.23l-5.49,6.83,5.77,7.17h-1.26l-5.15-6.38-5.07,6.38h-1.29Z" transform="translate(-119.16 -95.23)" style="fill:#f6d743"/><path d="M236.87,261.33h1v4.14h-1v-4.14Zm0,6.44h1v14h-1v-14Z" transform="translate(-119.16 -95.23)" style="fill:#f6d743"/><path d="M240.79,267.77h2.46v-3.22l1-.73v3.95h3.84v0.92h-3.84v8.2c0,3.36.76,3.92,3.84,3.92v1H248c-3.72,0-4.7-1-4.7-4.84v-8.23h-2.46v-0.92Z" transform="translate(-119.16 -95.23)" style="fill:#f6d743"/><path d="M257,281l-6.38-13.22h1.15l5.77,12,5.43-12h1.12l-9.3,20.47h-1.12Z" transform="translate(-119.16 -95.23)" style="fill:#f6d743"/><polyline points="162.62 33.77 162.62 283.22 542.62 283.22" style="fill:none;stroke:#fff;stroke-miterlimit:10"/><path d="M306.67,356.78c132.33,0,249.67-47.78,259-188.33" transform="translate(-119.16 -95.23)" style="fill:none;stroke:#ec607f;stroke-miterlimit:10;stroke-width:5px"/><path d="M338.09,95.23h6.38c4.54,0,7.17,2,7.17,5.74a4.38,4.38,0,0,1-2.21,3.95,4.82,4.82,0,0,1,2.94,4.68c0,4.06-2.83,6.08-7.36,6.08h-6.92V95.23ZM342,98.81v4.54h2.49c2.41,0,3.25-1,3.25-2.38s-0.92-2.16-3.22-2.16H342Zm0,8.18v5.1h3c2.27,0,3.44-.92,3.44-2.58s-0.78-2.52-3.64-2.52H342Z" transform="translate(-119.16 -95.23)" style="fill:#fff"/><path d="M353.63,108.67c0-5,3.64-7.28,6.8-7.28a5.61,5.61,0,0,1,4.17,1.65v-1.37h3.84v14h-3.84V114.1a5.46,5.46,0,0,1-4.23,1.85A6.92,6.92,0,0,1,353.63,108.67Zm11.09,0a3.61,3.61,0,0,0-3.58-3.75A3.77,3.77,0,1,0,364.72,108.64Z" transform="translate(-119.16 -95.23)" style="fill:#fff"/><path d="M370,108.67c0-5,3.64-7.28,6.8-7.28A5.61,5.61,0,0,1,381,103V95.23h3.84v20.44H381V114.1a5.46,5.46,0,0,1-4.23,1.85A6.92,6.92,0,0,1,370,108.67Zm11.09,0a3.61,3.61,0,0,0-3.58-3.75A3.77,3.77,0,1,0,381.07,108.64Z" transform="translate(-119.16 -95.23)" style="fill:#fff"/><path d="M398.77,99h-5.43V95.23h14.76V99h-5.43v16.72h-3.89V99Z" transform="translate(-119.16 -95.23)" style="fill:#fff"/><path d="M406,108.67a7.25,7.25,0,1,1,7.25,7.28A7.24,7.24,0,0,1,406,108.67Zm10.78,0a3.59,3.59,0,0,0-3.53-3.64,3.64,3.64,0,0,0,0,7.28A3.59,3.59,0,0,0,416.77,108.67Z" transform="translate(-119.16 -95.23)" style="fill:#fff"/><path d="M421.76,108.67a7.25,7.25,0,1,1,7.25,7.28A7.24,7.24,0,0,1,421.76,108.67Zm10.78,0A3.59,3.59,0,0,0,429,105a3.64,3.64,0,0,0,0,7.28A3.59,3.59,0,0,0,432.54,108.67Z" transform="translate(-119.16 -95.23)" style="fill:#fff"/><path d="M437.8,95.23h3.84v20.44H437.8V95.23Z" transform="translate(-119.16 -95.23)" style="fill:#fff"/><path d="M442.76,112.17l3.67-1.43a2.92,2.92,0,0,0,2.94,1.9c1.26,0,1.93-.59,1.93-1.26s-1.37-1-3-1.29c-2.52-.45-5-1.32-5-4.31,0-2.35,2.27-4.45,5.74-4.4,3.14,0,4.93,1.29,5.94,3.25l-3.39,1.43a2.62,2.62,0,0,0-2.58-1.54c-1.26,0-1.82.53-1.82,1.15s0.81,0.84,2.91,1.26c2.35,0.48,5.07,1.32,5.07,4.34,0,2-1.9,4.73-5.94,4.68C445.81,115.95,443.76,114.63,442.76,112.17Z" transform="translate(-119.16 -95.23)" style="fill:#fff"/></svg>